<svg id="Icon" xmlns="http://www.w3.org/2000/svg" width="42" height="42" viewBox="0 0 42 42">
  <g id="Rectangle">
    <rect id="Rectangle-2" data-name="Rectangle" width="42" height="42" rx="12" fill="#f2f3f3"/>
  </g>
  <g id="Icon-2" data-name="Icon" transform="translate(7.24 7.384)">
    <path id="Shape" d="M23.625,27H3.375A2.534,2.534,0,0,1,.844,24.468V11.576A1.694,1.694,0,0,1,0,10.125V5.063A1.69,1.69,0,0,1,1.687,3.375h6.75V2.531A2.534,2.534,0,0,1,10.968,0h5.063a2.534,2.534,0,0,1,2.531,2.531v.844h6.75A1.69,1.69,0,0,1,27,5.063v5.062a1.693,1.693,0,0,1-.844,1.451V24.468A2.534,2.534,0,0,1,23.625,27ZM2.531,11.813V24.468a.845.845,0,0,0,.844.844h20.25a.845.845,0,0,0,.844-.844V11.813Zm-.844-6.75v5.062H25.312V5.063Zm9.281-3.375a.845.845,0,0,0-.844.844v.844h6.75V2.531a.845.845,0,0,0-.844-.844Z" transform="translate(-0.24 -0.384)" fill="#849e9b"/>
    <path id="Shape-2" data-name="Shape" d="M6.667,10H3.333A.834.834,0,0,1,2.5,9.167V7.5H.833A.834.834,0,0,1,0,6.667V3.333A.834.834,0,0,1,.833,2.5H2.5V.833A.834.834,0,0,1,3.333,0H6.667A.834.834,0,0,1,7.5.833V2.5H9.167A.834.834,0,0,1,10,3.333V6.667a.834.834,0,0,1-.833.833H7.5V9.167A.834.834,0,0,1,6.667,10Zm-5-5.833V5.834H3.333a.835.835,0,0,1,.834.833V8.333H5.834V6.667a.834.834,0,0,1,.833-.833H8.333V4.167H6.667a.835.835,0,0,1-.833-.834V1.667H4.167V3.333a.835.835,0,0,1-.834.834Z" transform="translate(8.76 13.616)" fill="#849e9b"/>
    <path id="Path" d="M.843,5.057A.843.843,0,0,1,0,4.214V.843a.843.843,0,0,1,1.686,0V4.214A.843.843,0,0,1,.843,5.057Z" transform="translate(5.057 8.428)" fill="#849e9b"/>
    <path id="Path-2" data-name="Path" d="M.843,5.057A.843.843,0,0,1,0,4.214V.843a.843.843,0,0,1,1.686,0V4.214A.843.843,0,0,1,.843,5.057Z" transform="translate(20.227 8.428)" fill="#849e9b"/>
  </g>
</svg>
