<?xml version="1.0" encoding="UTF-8"?>
<svg id="Layer_2" data-name="Layer 2" xmlns="http://www.w3.org/2000/svg" xmlns:xlink="http://www.w3.org/1999/xlink" viewBox="0 0 992.22 773">
  <defs>
    <style>
      .cls-1 {
        fill: #7d5f7a;
      }

      .cls-1, .cls-2, .cls-3, .cls-4, .cls-5, .cls-6, .cls-7, .cls-8, .cls-9, .cls-10, .cls-11, .cls-12, .cls-13, .cls-14, .cls-15, .cls-16, .cls-17, .cls-18, .cls-19, .cls-20, .cls-21, .cls-22, .cls-23, .cls-24, .cls-25, .cls-26, .cls-27, .cls-28, .cls-29, .cls-30, .cls-31, .cls-32, .cls-33, .cls-34, .cls-35, .cls-36, .cls-37, .cls-38, .cls-39, .cls-40, .cls-41, .cls-42, .cls-43, .cls-44, .cls-45, .cls-46, .cls-47, .cls-48, .cls-49, .cls-50, .cls-51, .cls-52, .cls-53, .cls-54, .cls-55, .cls-56, .cls-57, .cls-58, .cls-59, .cls-60, .cls-61, .cls-62, .cls-63, .cls-64, .cls-65, .cls-66, .cls-67, .cls-68, .cls-69, .cls-70, .cls-71, .cls-72, .cls-73, .cls-74, .cls-75, .cls-76, .cls-77, .cls-78, .cls-79, .cls-80, .cls-81, .cls-82, .cls-83, .cls-84, .cls-85, .cls-86, .cls-87, .cls-88, .cls-89, .cls-90, .cls-91, .cls-92, .cls-93, .cls-94, .cls-95, .cls-96, .cls-97, .cls-98, .cls-99, .cls-100, .cls-101, .cls-102, .cls-103, .cls-104, .cls-105, .cls-106, .cls-107, .cls-108 {
        stroke-width: 0px;
      }

      .cls-2 {
        fill: #fcfbf6;
      }

      .cls-3 {
        opacity: .6;
      }

      .cls-3, .cls-107 {
        fill: #3b628b;
      }

      .cls-4 {
        fill: #3a3356;
      }

      .cls-5 {
        fill: url(#linear-gradient);
      }

      .cls-109 {
        stroke-width: 2px;
      }

      .cls-109, .cls-110, .cls-111, .cls-112, .cls-113, .cls-114, .cls-115, .cls-116 {
        fill: none;
        stroke-miterlimit: 10;
      }

      .cls-109, .cls-111 {
        stroke: #fefbf4;
      }

      .cls-6 {
        fill: url(#linear-gradient-38);
      }

      .cls-7 {
        fill: url(#linear-gradient-33);
      }

      .cls-8 {
        fill: url(#linear-gradient-32);
      }

      .cls-9 {
        fill: url(#linear-gradient-30);
      }

      .cls-10 {
        fill: url(#linear-gradient-31);
      }

      .cls-11 {
        fill: url(#linear-gradient-36);
      }

      .cls-12 {
        fill: url(#linear-gradient-39);
      }

      .cls-13 {
        fill: url(#linear-gradient-34);
      }

      .cls-14 {
        fill: url(#linear-gradient-35);
      }

      .cls-15 {
        fill: url(#linear-gradient-25);
      }

      .cls-16 {
        fill: url(#linear-gradient-11);
      }

      .cls-17 {
        fill: url(#linear-gradient-12);
      }

      .cls-18 {
        fill: url(#linear-gradient-13);
      }

      .cls-19 {
        fill: url(#linear-gradient-10);
      }

      .cls-20 {
        fill: url(#linear-gradient-16);
      }

      .cls-21 {
        fill: url(#linear-gradient-19);
      }

      .cls-22 {
        fill: url(#linear-gradient-15);
      }

      .cls-23 {
        fill: url(#linear-gradient-23);
      }

      .cls-24 {
        fill: url(#linear-gradient-21);
      }

      .cls-25 {
        fill: url(#linear-gradient-18);
      }

      .cls-26 {
        fill: url(#linear-gradient-14);
      }

      .cls-27 {
        fill: url(#linear-gradient-22);
      }

      .cls-28 {
        fill: url(#linear-gradient-20);
      }

      .cls-29 {
        fill: url(#linear-gradient-24);
      }

      .cls-30 {
        fill: url(#linear-gradient-45);
      }

      .cls-31 {
        fill: url(#linear-gradient-46);
      }

      .cls-32 {
        fill: url(#linear-gradient-44);
      }

      .cls-33 {
        fill: url(#linear-gradient-48);
      }

      .cls-34 {
        fill: url(#linear-gradient-49);
      }

      .cls-35 {
        fill: url(#linear-gradient-47);
      }

      .cls-36 {
        fill: url(#linear-gradient-42);
      }

      .cls-37 {
        fill: url(#linear-gradient-43);
      }

      .cls-38 {
        fill: url(#linear-gradient-40);
      }

      .cls-39 {
        fill: url(#linear-gradient-41);
      }

      .cls-40 {
        fill: url(#linear-gradient-59);
      }

      .cls-41 {
        fill: url(#linear-gradient-57);
      }

      .cls-42 {
        fill: url(#linear-gradient-58);
      }

      .cls-43 {
        fill: url(#linear-gradient-55);
      }

      .cls-44 {
        fill: url(#linear-gradient-56);
      }

      .cls-45 {
        fill: url(#linear-gradient-53);
      }

      .cls-46 {
        fill: url(#linear-gradient-51);
      }

      .cls-47 {
        fill: url(#linear-gradient-52);
      }

      .cls-48 {
        fill: url(#linear-gradient-50);
      }

      .cls-49 {
        fill: url(#linear-gradient-54);
      }

      .cls-50 {
        fill: url(#linear-gradient-60);
      }

      .cls-51 {
        fill: url(#linear-gradient-61);
      }

      .cls-52 {
        fill: url(#linear-gradient-62);
      }

      .cls-53 {
        fill: url(#linear-gradient-65);
      }

      .cls-54 {
        fill: url(#linear-gradient-79);
      }

      .cls-55 {
        fill: url(#linear-gradient-78);
      }

      .cls-56 {
        fill: url(#linear-gradient-77);
      }

      .cls-57 {
        fill: url(#linear-gradient-75);
      }

      .cls-58 {
        fill: url(#linear-gradient-76);
      }

      .cls-59 {
        fill: url(#linear-gradient-74);
      }

      .cls-60 {
        fill: url(#linear-gradient-67);
      }

      .cls-61 {
        fill: url(#linear-gradient-68);
      }

      .cls-62 {
        fill: url(#linear-gradient-66);
      }

      .cls-63 {
        fill: url(#linear-gradient-63);
      }

      .cls-64 {
        fill: url(#linear-gradient-69);
      }

      .cls-65 {
        fill: url(#linear-gradient-64);
      }

      .cls-66 {
        fill: url(#linear-gradient-71);
      }

      .cls-67 {
        fill: url(#linear-gradient-72);
      }

      .cls-68 {
        fill: url(#linear-gradient-70);
      }

      .cls-69 {
        fill: url(#linear-gradient-73);
      }

      .cls-70 {
        fill: url(#linear-gradient-84);
      }

      .cls-71 {
        fill: url(#linear-gradient-85);
      }

      .cls-72 {
        fill: url(#linear-gradient-82);
      }

      .cls-73 {
        fill: url(#linear-gradient-83);
      }

      .cls-74 {
        fill: url(#linear-gradient-86);
      }

      .cls-75 {
        fill: url(#linear-gradient-80);
      }

      .cls-76 {
        fill: url(#linear-gradient-81);
      }

      .cls-77 {
        fill: #e5a194;
      }

      .cls-78 {
        fill: #b3cbd7;
      }

      .cls-79 {
        fill: #e18f8c;
      }

      .cls-80 {
        fill: #5784a8;
      }

      .cls-80, .cls-90 {
        opacity: .5;
      }

      .cls-81, .cls-87 {
        fill: #fefbf4;
      }

      .cls-82 {
        fill: #f6f8f4;
      }

      .cls-83 {
        fill: #2c3e6a;
      }

      .cls-84 {
        fill: #e2dcde;
      }

      .cls-85 {
        fill: #464b6d;
      }

      .cls-86 {
        fill: #213d66;
      }

      .cls-110 {
        stroke: #4d7ea1;
      }

      .cls-110, .cls-111 {
        stroke-width: 3px;
      }

      .cls-87 {
        opacity: .9;
      }

      .cls-88 {
        fill: url(#linear-gradient-37);
      }

      .cls-88, .cls-107 {
        opacity: .8;
      }

      .cls-89 {
        fill: #a35b69;
      }

      .cls-90 {
        fill: #46729c;
      }

      .cls-91 {
        fill: #7eb8ca;
      }

      .cls-92 {
        fill: #d2eaf2;
      }

      .cls-93 {
        fill: #fddbc0;
      }

      .cls-94 {
        fill: #326387;
      }

      .cls-95 {
        fill: #e8b18b;
      }

      .cls-117 {
        opacity: .7;
      }

      .cls-112 {
        stroke: url(#linear-gradient-26);
      }

      .cls-113 {
        stroke: url(#linear-gradient-29);
      }

      .cls-114 {
        stroke: url(#linear-gradient-28);
      }

      .cls-115 {
        stroke: url(#linear-gradient-27);
      }

      .cls-116 {
        stroke: url(#linear-gradient-17);
      }

      .cls-96 {
        fill: #8f5569;
      }

      .cls-97 {
        fill: #fde6c8;
      }

      .cls-98 {
        fill: url(#linear-gradient-4);
      }

      .cls-99 {
        fill: url(#linear-gradient-2);
      }

      .cls-100 {
        fill: url(#linear-gradient-3);
      }

      .cls-101 {
        fill: url(#linear-gradient-8);
      }

      .cls-102 {
        fill: url(#linear-gradient-9);
      }

      .cls-103 {
        fill: url(#linear-gradient-7);
      }

      .cls-104 {
        fill: url(#linear-gradient-5);
      }

      .cls-105 {
        fill: url(#linear-gradient-6);
      }

      .cls-106 {
        fill: #35648e;
      }

      .cls-108 {
        fill: #fff;
      }
    </style>
    <linearGradient id="linear-gradient" x1="48.71" y1="489.47" x2="117.58" y2="597.97" gradientUnits="userSpaceOnUse">
      <stop offset="0" stop-color="#7bb4c5"/>
      <stop offset=".11" stop-color="#72aabe"/>
      <stop offset=".44" stop-color="#5d91ae"/>
      <stop offset=".75" stop-color="#5183a4"/>
      <stop offset="1" stop-color="#4d7ea1"/>
    </linearGradient>
    <linearGradient id="linear-gradient-2" x1="839.24" y1="345.72" x2="834.09" y2="407.42" xlink:href="#linear-gradient"/>
    <linearGradient id="linear-gradient-3" x1="873.67" y1="345.3" x2="868.52" y2="406.99" gradientTransform="translate(718.78 -330.26) rotate(49.41) scale(.73 .88)" xlink:href="#linear-gradient"/>
    <linearGradient id="linear-gradient-4" x1="911.86" y1="402.91" x2="906.71" y2="464.61" gradientTransform="translate(958.76 -427.21) rotate(68.87) scale(.83 .91)" xlink:href="#linear-gradient"/>
    <linearGradient id="linear-gradient-5" x1="959.13" y1="454.97" x2="953.98" y2="516.66" gradientTransform="translate(946.21 -531.79) rotate(68.88) scale(.94 .96)" xlink:href="#linear-gradient"/>
    <linearGradient id="linear-gradient-6" x1="914.87" y1="430.44" x2="909.72" y2="492.14" gradientTransform="translate(-155.33 340.81) rotate(-21.15) scale(.94)" xlink:href="#linear-gradient"/>
    <linearGradient id="linear-gradient-7" x1="865.81" y1="458.03" x2="860.66" y2="519.72" gradientTransform="translate(-256.76 497.56) rotate(-31.84) scale(1.02 1.07)" xlink:href="#linear-gradient"/>
    <linearGradient id="linear-gradient-8" x1="1000.38" y1="501.85" x2="995.23" y2="563.55" gradientTransform="translate(972.24 -277.58) rotate(68.88) scale(.69 .84)" xlink:href="#linear-gradient"/>
    <linearGradient id="linear-gradient-9" x1="903.27" y1="496.35" x2="898.12" y2="558.04" gradientTransform="translate(75.54 188.2) rotate(-8.4) scale(.69 .84)" xlink:href="#linear-gradient"/>
    <linearGradient id="linear-gradient-10" x1="576.26" y1="-160.42" x2="571.11" y2="-98.72" gradientTransform="translate(174.94 801.58) rotate(-86.43) scale(.74 .84)" xlink:href="#linear-gradient"/>
    <linearGradient id="linear-gradient-11" x1="117.4" y1="198.42" x2="112.25" y2="260.12" gradientTransform="translate(-6.75 124.36) rotate(-4.68) scale(.84 .88)" xlink:href="#linear-gradient"/>
    <linearGradient id="linear-gradient-12" x1="227.96" y1="463.68" x2="222.81" y2="525.38" gradientTransform="translate(-33.09 -107.52) rotate(2.26) scale(.83 .91)" xlink:href="#linear-gradient"/>
    <linearGradient id="linear-gradient-13" x1="863.78" y1="-205.23" x2="858.63" y2="-143.54" gradientTransform="translate(184.52 819.5) rotate(-87.76) scale(.48 .44)" xlink:href="#linear-gradient"/>
    <linearGradient id="linear-gradient-14" x1="635.43" y1="-192.83" x2="630.28" y2="-131.14" gradientTransform="translate(-29.41 849.7) rotate(-61.52) scale(.8 1.02)" xlink:href="#linear-gradient"/>
    <linearGradient id="linear-gradient-15" x1="901.69" y1="578.37" x2="841.35" y2="629.02" xlink:href="#linear-gradient"/>
    <linearGradient id="linear-gradient-16" x1="24.32" y1="573.76" x2="128.75" y2="738.26" gradientUnits="userSpaceOnUse">
      <stop offset="0" stop-color="#cb828e"/>
      <stop offset=".28" stop-color="#a97285"/>
      <stop offset=".55" stop-color="#90677f"/>
      <stop offset=".8" stop-color="#82617b"/>
      <stop offset="1" stop-color="#7d5f7a"/>
    </linearGradient>
    <linearGradient id="linear-gradient-17" x1="435.16" y1="523.94" x2="434.61" y2="514.39" gradientUnits="userSpaceOnUse">
      <stop offset="0" stop-color="#b3cbd7"/>
      <stop offset="1" stop-color="#eef1f4"/>
    </linearGradient>
    <linearGradient id="linear-gradient-18" x1="398.43" y1="363.22" x2="397.69" y2="555.26" gradientUnits="userSpaceOnUse">
      <stop offset="0" stop-color="#fddbc0"/>
      <stop offset=".04" stop-color="#fdd7be"/>
      <stop offset=".43" stop-color="#fdbcae"/>
      <stop offset=".49" stop-color="#eaaea6"/>
      <stop offset=".65" stop-color="#bb8c93"/>
      <stop offset=".8" stop-color="#997385"/>
      <stop offset=".92" stop-color="#84647d"/>
      <stop offset="1" stop-color="#7d5f7a"/>
    </linearGradient>
    <linearGradient id="linear-gradient-19" x1="412.34" y1="647.65" x2="417.65" y2="414.87" xlink:href="#linear-gradient-17"/>
    <linearGradient id="linear-gradient-20" x1="343.17" y1="70.39" x2="379.7" y2="7.52" gradientUnits="userSpaceOnUse">
      <stop offset="0" stop-color="#605871"/>
      <stop offset=".25" stop-color="#625a72"/>
      <stop offset=".41" stop-color="#6b6075"/>
      <stop offset=".55" stop-color="#7a6c7b"/>
      <stop offset=".67" stop-color="#8e7d84"/>
      <stop offset=".78" stop-color="#aa928f"/>
      <stop offset=".88" stop-color="#cbad9c"/>
      <stop offset=".98" stop-color="#f1cbac"/>
      <stop offset="1" stop-color="#fbd3b0"/>
    </linearGradient>
    <linearGradient id="linear-gradient-21" x1="367.89" y1="180.34" x2="460.78" y2="55.55" gradientUnits="userSpaceOnUse">
      <stop offset="0" stop-color="#605871"/>
      <stop offset=".32" stop-color="#625971"/>
      <stop offset=".47" stop-color="#695f75"/>
      <stop offset=".6" stop-color="#776a7a"/>
      <stop offset=".7" stop-color="#897982"/>
      <stop offset=".79" stop-color="#a28c8b"/>
      <stop offset=".88" stop-color="#c0a498"/>
      <stop offset=".96" stop-color="#e2bfa6"/>
      <stop offset="1" stop-color="#fbd3b0"/>
    </linearGradient>
    <linearGradient id="linear-gradient-22" x1="331.96" y1="248.36" x2="369.37" y2="198.1" gradientUnits="userSpaceOnUse">
      <stop offset="0" stop-color="#e5a194"/>
      <stop offset=".18" stop-color="#de9890"/>
      <stop offset="1" stop-color="#c47582"/>
    </linearGradient>
    <linearGradient id="linear-gradient-23" x1="244.05" y1="625.5" x2="243.17" y2="281.31" xlink:href="#linear-gradient-17"/>
    <linearGradient id="linear-gradient-24" x1="235.22" y1="408" x2="175.72" y2="408" gradientUnits="userSpaceOnUse">
      <stop offset="0" stop-color="#7eb8ca"/>
      <stop offset=".12" stop-color="#89bbcc"/>
      <stop offset=".44" stop-color="#a0c4d2"/>
      <stop offset=".74" stop-color="#aec9d5"/>
      <stop offset="1" stop-color="#b3cbd7"/>
    </linearGradient>
    <linearGradient id="linear-gradient-25" x1="248.08" y1="462.67" x2="166.87" y2="462.67" xlink:href="#linear-gradient-24"/>
    <linearGradient id="linear-gradient-26" x1="258.56" y1="524" x2="138.55" y2="524" xlink:href="#linear-gradient-24"/>
    <linearGradient id="linear-gradient-27" x1="277.56" y1="571.5" x2="126.87" y2="571.5" xlink:href="#linear-gradient-24"/>
    <linearGradient id="linear-gradient-28" x1="307.44" y1="596.95" x2="156.75" y2="596.95" gradientTransform="translate(-35.45 15.62) rotate(-3.46)" xlink:href="#linear-gradient-24"/>
    <linearGradient id="linear-gradient-29" x1="344.03" y1="588.33" x2="193.34" y2="588.33" gradientTransform="translate(-91.38 85.35) rotate(-10.09)" xlink:href="#linear-gradient-24"/>
    <linearGradient id="linear-gradient-30" x1="365.88" y1="529.3" x2="830.27" y2="529.3" gradientUnits="userSpaceOnUse">
      <stop offset="0" stop-color="#5eabc3"/>
      <stop offset=".12" stop-color="#65aec5"/>
      <stop offset=".3" stop-color="#7ab9cb"/>
      <stop offset=".52" stop-color="#9ccad5"/>
      <stop offset=".76" stop-color="#cae1e4"/>
      <stop offset="1" stop-color="#fefbf4"/>
    </linearGradient>
    <linearGradient id="linear-gradient-31" x1="451.8" y1="336.81" x2="541.6" y2="198.51" gradientUnits="userSpaceOnUse">
      <stop offset=".01" stop-color="#46729c"/>
      <stop offset=".58" stop-color="#74b3c8"/>
      <stop offset="1" stop-color="#b3cbd7"/>
    </linearGradient>
    <linearGradient id="linear-gradient-32" x1="473.99" y1="281.81" x2="552.56" y2="209.89" gradientUnits="userSpaceOnUse">
      <stop offset=".01" stop-color="#74b3c8"/>
      <stop offset=".54" stop-color="#b0cad6"/>
    </linearGradient>
    <linearGradient id="linear-gradient-33" x1="463.47" y1="250.74" x2="532.68" y2="193.87" xlink:href="#linear-gradient-32"/>
    <linearGradient id="linear-gradient-34" x1="464.88" y1="312.57" x2="597.14" y2="312.57" gradientUnits="userSpaceOnUse">
      <stop offset="0" stop-color="#e5a194"/>
      <stop offset="1" stop-color="#fdb99b"/>
    </linearGradient>
    <linearGradient id="linear-gradient-35" x1="503.83" y1="382.64" x2="531.74" y2="345.15" xlink:href="#linear-gradient-22"/>
    <linearGradient id="linear-gradient-36" x1="382.04" y1="212.5" x2="477.37" y2="111.9" xlink:href="#linear-gradient-34"/>
    <linearGradient id="linear-gradient-37" x1="662.22" y1="525.67" y2="525.67" xlink:href="#linear-gradient-30"/>
    <linearGradient id="linear-gradient-38" x1="449.22" y1="389.85" x2="575.79" y2="389.85" gradientUnits="userSpaceOnUse">
      <stop offset=".01" stop-color="#46729c"/>
      <stop offset=".48" stop-color="#74b3c8"/>
      <stop offset=".58" stop-color="#77b4c9"/>
      <stop offset=".67" stop-color="#82bacd"/>
      <stop offset=".75" stop-color="#94c4d4"/>
      <stop offset=".83" stop-color="#add2de"/>
      <stop offset=".91" stop-color="#cee4eb"/>
      <stop offset=".99" stop-color="#f6fafb"/>
      <stop offset="1" stop-color="#fff"/>
    </linearGradient>
    <linearGradient id="linear-gradient-39" x1="689.31" y1="558.69" x2="734.96" y2="510.91" gradientUnits="userSpaceOnUse">
      <stop offset=".01" stop-color="#46729c"/>
      <stop offset=".1" stop-color="#5384a8"/>
      <stop offset=".28" stop-color="#74b3c8"/>
      <stop offset=".44" stop-color="#8dc1d2"/>
      <stop offset=".78" stop-color="#cfe5ec"/>
      <stop offset="1" stop-color="#fff"/>
    </linearGradient>
    <linearGradient id="linear-gradient-40" x1="568.68" y1="434.35" x2="606.39" y2="384.94" gradientUnits="userSpaceOnUse">
      <stop offset="0" stop-color="#5eabc3"/>
      <stop offset=".18" stop-color="#80bccd"/>
      <stop offset=".57" stop-color="#c3dde2"/>
      <stop offset=".86" stop-color="#edf2ef"/>
      <stop offset="1" stop-color="#fefbf4"/>
    </linearGradient>
    <linearGradient id="linear-gradient-41" x1="703.76" y1="568.72" x2="730.9" y2="540.32" gradientUnits="userSpaceOnUse">
      <stop offset=".01" stop-color="#46729c"/>
      <stop offset=".19" stop-color="#5284a8"/>
      <stop offset=".5" stop-color="#659db9"/>
      <stop offset=".78" stop-color="#70adc4"/>
      <stop offset="1" stop-color="#74b3c8"/>
    </linearGradient>
    <linearGradient id="linear-gradient-42" x1="717.43" y1="572.96" x2="739.33" y2="550.04" xlink:href="#linear-gradient-41"/>
    <linearGradient id="linear-gradient-43" x1="531.98" y1="581.62" x2="632.68" y2="482.36" gradientUnits="userSpaceOnUse">
      <stop offset=".01" stop-color="#46729c"/>
      <stop offset=".18" stop-color="#5b90b0"/>
      <stop offset=".34" stop-color="#6da9c1"/>
      <stop offset=".45" stop-color="#74b3c8"/>
      <stop offset=".58" stop-color="#99c7d6"/>
      <stop offset=".87" stop-color="#e2eff3"/>
      <stop offset="1" stop-color="#fff"/>
    </linearGradient>
    <linearGradient id="linear-gradient-44" x1="418.9" y1="582.83" x2="531.28" y2="506.04" gradientUnits="userSpaceOnUse">
      <stop offset=".01" stop-color="#46729c"/>
      <stop offset=".22" stop-color="#5a8eaf"/>
      <stop offset=".51" stop-color="#74b3c8"/>
      <stop offset=".81" stop-color="#cbe2ea"/>
      <stop offset="1" stop-color="#fff"/>
    </linearGradient>
    <linearGradient id="linear-gradient-45" x1="470.55" y1="593.17" x2="536.55" y2="593.17" xlink:href="#linear-gradient-41"/>
    <linearGradient id="linear-gradient-46" x1="549.3" y1="741.15" x2="739.29" y2="677.8" gradientUnits="userSpaceOnUse">
      <stop offset="0" stop-color="#2f5781"/>
      <stop offset=".14" stop-color="#365d85"/>
      <stop offset=".34" stop-color="#4b6f93"/>
      <stop offset=".59" stop-color="#6c8da9"/>
      <stop offset=".87" stop-color="#9bb6c7"/>
      <stop offset="1" stop-color="#b3cbd7"/>
    </linearGradient>
    <linearGradient id="linear-gradient-47" x1="738.98" y1="699.37" x2="813.96" y2="643.32" gradientUnits="userSpaceOnUse">
      <stop offset="0" stop-color="#b3cbd7"/>
      <stop offset=".2" stop-color="#bad0da"/>
      <stop offset=".5" stop-color="#cfdee5"/>
      <stop offset=".87" stop-color="#f0f5f7"/>
      <stop offset="1" stop-color="#fff"/>
    </linearGradient>
    <linearGradient id="linear-gradient-48" x1="577.39" y1="680.89" x2="607.8" y2="582.97" xlink:href="#linear-gradient-44"/>
    <linearGradient id="linear-gradient-49" x1="429.22" y1="468.52" x2="420.04" y2="308.09" xlink:href="#linear-gradient-17"/>
    <linearGradient id="linear-gradient-50" x1="543.43" y1="470.11" x2="532.54" y2="427.51" xlink:href="#linear-gradient-34"/>
    <linearGradient id="linear-gradient-51" x1="277.22" y1="436.19" x2="353.72" y2="436.19" gradientUnits="userSpaceOnUse">
      <stop offset="0" stop-color="#7eb8ca"/>
      <stop offset=".21" stop-color="#94c0cf"/>
      <stop offset=".44" stop-color="#a5c6d3"/>
      <stop offset=".69" stop-color="#afc9d6"/>
      <stop offset="1" stop-color="#b3cbd7"/>
    </linearGradient>
    <linearGradient id="linear-gradient-52" x1="366.22" y1="513.74" x2="366.22" y2="432.83" xlink:href="#linear-gradient-17"/>
    <linearGradient id="linear-gradient-53" x1="430.05" y1="504.5" x2="438.03" y2="504.5" xlink:href="#linear-gradient-24"/>
    <linearGradient id="linear-gradient-54" x1="298.22" y1="468.25" x2="354.22" y2="468.25" xlink:href="#linear-gradient-51"/>
    <linearGradient id="linear-gradient-55" x1="366.99" y1="477.48" x2="379.32" y2="477.48" gradientTransform="translate(60.61 -41.93) rotate(6.92)" xlink:href="#linear-gradient-51"/>
    <linearGradient id="linear-gradient-56" x1="386.41" y1="483.75" x2="399.22" y2="483.75" xlink:href="#linear-gradient-51"/>
    <linearGradient id="linear-gradient-57" x1="435.22" y1="438.5" x2="435.22" y2="512" gradientUnits="userSpaceOnUse">
      <stop offset="0" stop-color="#a35b69"/>
      <stop offset=".21" stop-color="#aa626d"/>
      <stop offset=".53" stop-color="#bd777a"/>
      <stop offset=".92" stop-color="#dd988e"/>
      <stop offset="1" stop-color="#e5a194"/>
    </linearGradient>
    <linearGradient id="linear-gradient-58" x1="577.72" y1="394.92" x2="599.05" y2="394.92" xlink:href="#linear-gradient-57"/>
    <linearGradient id="linear-gradient-59" x1="597.05" y1="394.25" x2="629.09" y2="394.25" xlink:href="#linear-gradient-57"/>
    <linearGradient id="linear-gradient-60" x1="602.22" y1="401.83" x2="640.79" y2="401.83" xlink:href="#linear-gradient-57"/>
    <linearGradient id="linear-gradient-61" x1="609.55" y1="414" x2="646.08" y2="414" xlink:href="#linear-gradient-57"/>
    <linearGradient id="linear-gradient-62" x1="647.53" y1="434.79" x2="698.32" y2="434.79" xlink:href="#linear-gradient-34"/>
    <linearGradient id="linear-gradient-63" x1="661.41" y1="414.1" x2="649.21" y2="403.08" gradientUnits="userSpaceOnUse">
      <stop offset="0" stop-color="#a35b69"/>
      <stop offset=".21" stop-color="#b87176"/>
      <stop offset=".51" stop-color="#d08b86"/>
      <stop offset=".79" stop-color="#df9b90"/>
      <stop offset="1" stop-color="#e5a194"/>
    </linearGradient>
    <linearGradient id="linear-gradient-64" x1="675.63" y1="424.79" x2="663.19" y2="441.18" gradientUnits="userSpaceOnUse">
      <stop offset="0" stop-color="#a35b69"/>
      <stop offset=".44" stop-color="#bd777a"/>
      <stop offset="1" stop-color="#e5a194"/>
    </linearGradient>
    <linearGradient id="linear-gradient-65" x1="683.46" y1="438.01" x2="668.6" y2="457.59" xlink:href="#linear-gradient-64"/>
    <linearGradient id="linear-gradient-66" x1="691.26" y1="449.92" x2="681" y2="463.45" xlink:href="#linear-gradient-64"/>
    <linearGradient id="linear-gradient-67" x1="665.97" y1="414.29" x2="656.35" y2="426.97" xlink:href="#linear-gradient-64"/>
    <linearGradient id="linear-gradient-68" x1="773.83" y1="639.49" x2="818.76" y2="592.48" xlink:href="#linear-gradient-39"/>
    <linearGradient id="linear-gradient-69" x1="717.47" y1="631.57" x2="829.27" y2="631.57" xlink:href="#linear-gradient-34"/>
    <linearGradient id="linear-gradient-70" x1="795.76" y1="613.1" x2="745.53" y2="622.85" xlink:href="#linear-gradient-64"/>
    <linearGradient id="linear-gradient-71" x1="793.64" y1="629.48" x2="749.34" y2="638.08" xlink:href="#linear-gradient-64"/>
    <linearGradient id="linear-gradient-72" x1="799.77" y1="639.48" x2="754.87" y2="648.2" xlink:href="#linear-gradient-64"/>
    <linearGradient id="linear-gradient-73" x1="807.3" y1="651.42" x2="760.63" y2="660.48" xlink:href="#linear-gradient-64"/>
    <linearGradient id="linear-gradient-74" x1="785.23" y1="600.19" x2="742.86" y2="608.42" xlink:href="#linear-gradient-64"/>
    <linearGradient id="linear-gradient-75" x1="798.57" y1="597.72" x2="772.41" y2="602.8" xlink:href="#linear-gradient-64"/>
    <linearGradient id="linear-gradient-76" x1="725.41" y1="647.21" x2="727.15" y2="619.6" xlink:href="#linear-gradient-64"/>
    <linearGradient id="linear-gradient-77" x1="481.88" y1="609.67" x2="534.88" y2="609.67" xlink:href="#linear-gradient-41"/>
    <linearGradient id="linear-gradient-78" x1="328.75" y1="584.2" x2="304.04" y2="611.93" gradientUnits="userSpaceOnUse">
      <stop offset="0" stop-color="#fdbcae"/>
      <stop offset=".03" stop-color="#f7b7ab"/>
      <stop offset=".25" stop-color="#cb9899"/>
      <stop offset=".46" stop-color="#a97f8c"/>
      <stop offset=".66" stop-color="#906d82"/>
      <stop offset=".84" stop-color="#82627c"/>
      <stop offset=".99" stop-color="#7d5f7a"/>
    </linearGradient>
    <linearGradient id="linear-gradient-79" x1="314.75" y1="691" x2="268.84" y2="691" xlink:href="#linear-gradient-78"/>
    <linearGradient id="linear-gradient-80" x1="320.94" y1="690.93" x2="384.42" y2="691.63" gradientUnits="userSpaceOnUse">
      <stop offset="0" stop-color="#fdbcae"/>
      <stop offset=".23" stop-color="#fdd3c7"/>
      <stop offset=".52" stop-color="#fde9e0"/>
      <stop offset=".78" stop-color="#fdf6ee"/>
      <stop offset=".99" stop-color="#fefbf4"/>
    </linearGradient>
    <linearGradient id="linear-gradient-81" x1="216.2" y1="536.35" x2="216.2" y2="578.41" gradientTransform="translate(-370.9 361.95) rotate(-41.06)" gradientUnits="userSpaceOnUse">
      <stop offset="0" stop-color="#fdbcae"/>
      <stop offset=".14" stop-color="#f6b7ab"/>
      <stop offset=".34" stop-color="#e3a9a3"/>
      <stop offset=".58" stop-color="#c49296"/>
      <stop offset=".85" stop-color="#997385"/>
      <stop offset="1" stop-color="#7d5f7a"/>
    </linearGradient>
    <linearGradient id="linear-gradient-82" x1="367.63" y1="652.79" x2="367.63" y2="708.16" gradientTransform="translate(744.37 163.05) rotate(-155.9) scale(1 -1)" gradientUnits="userSpaceOnUse">
      <stop offset="0" stop-color="#fdbcae"/>
      <stop offset=".35" stop-color="#fabaad"/>
      <stop offset=".52" stop-color="#f3b5aa"/>
      <stop offset=".64" stop-color="#e6aba4"/>
      <stop offset=".75" stop-color="#d49e9d"/>
      <stop offset=".84" stop-color="#bc8d93"/>
      <stop offset=".92" stop-color="#a07888"/>
      <stop offset="1" stop-color="#7e5f7a"/>
      <stop offset="1" stop-color="#7d5f7a"/>
    </linearGradient>
    <linearGradient id="linear-gradient-83" x1="388.8" y1="627.38" x2="388.8" y2="682.75" gradientTransform="translate(501.77) rotate(-180) scale(1 -1)" xlink:href="#linear-gradient-81"/>
    <linearGradient id="linear-gradient-84" x1="227.62" y1="591.22" x2="227.62" y2="646.59" gradientTransform="translate(-307.26 227.06) rotate(-29.76) scale(.98) skewX(1.71)" xlink:href="#linear-gradient-82"/>
    <linearGradient id="linear-gradient-85" x1="226.88" y1="627.35" x2="226.88" y2="678" gradientTransform="matrix(1,0,0,1,0,0)" xlink:href="#linear-gradient-81"/>
    <linearGradient id="linear-gradient-86" x1="539.22" y1="754" x2="539.22" y2="778" gradientUnits="userSpaceOnUse">
      <stop offset="0" stop-color="#fdbcae"/>
      <stop offset=".03" stop-color="#f7b7ab"/>
      <stop offset=".25" stop-color="#cb9899"/>
      <stop offset=".46" stop-color="#a97f8c"/>
      <stop offset=".66" stop-color="#906d82"/>
      <stop offset=".85" stop-color="#82627c"/>
      <stop offset="1" stop-color="#7d5f7a"/>
    </linearGradient>
  </defs>
  <g id="Layer_10" data-name="Layer 10">
    <g>
      <circle class="cls-93" cx="471.81" cy="385.1" r="328.48" transform="translate(-134.12 446.42) rotate(-45)"/>
      <g>
        <path class="cls-5" d="M151.72,684S-5.78,547,27.72,499c0,0,19-28.5,52.5,26l18.5,31.5s-14.5-51,1-54,18.5,8.5,38.5,67l21,39.5-7.5,75Z"/>
        <polygon class="cls-86" points="151.28 661.84 33.36 509.27 152.86 660.61 151.28 661.84 151.28 661.84"/>
        <polygon class="cls-86" points="152.12 657.35 108.86 517.95 154.02 656.74 152.12 657.35 152.12 657.35"/>
        <path class="cls-81" d="M93.72,508.83s1.17-9.5,14.5-6.17c0,0,8.33,2.17,14.67,23.17,0,0-11.67-36.17-29.17-17Z"/>
        <path class="cls-81" d="M23.38,509.67s3.83-24,26.17-16.83c0,0,13.67,4,29.83,30.83,0,0-15.67-21.67-30.17-27.67s-23,3.33-25.83,13.67Z"/>
      </g>
      <g>
        <path class="cls-110" d="M759.88,565.67s61.67-137,104.67-181.33"/>
        <g>
          <path class="cls-99" d="M839.72,342s-19.5-2-22,31c0,0-2,32,17.5,33.5,0,0,15,2.5,21-34,0,0,4-26.5-16.5-30.5Z"/>
          <g class="cls-117">
            <path class="cls-86" d="M837.55,357c.93,16.22.49,32.52-1.33,48.67-.94-16.22-.48-32.52,1.33-48.67h0Z"/>
          </g>
          <path class="cls-84" d="M832.38,343.33s10.33-5.5,20,6.5c0,0,7.83,13.67,2.83,27.5,0,0,2.67-18-5.67-27.5-7.95-9.06-15.67-6.17-17.17-6.5Z"/>
        </g>
        <g>
          <path class="cls-100" d="M907.6,352.42s-7.97-12.01-31.23,5.5c0,0-22.35,17.22-14.05,28.94,0,0,5.49,9.79,32.76-7.78,0,0,19.63-12.95,12.52-26.67Z"/>
          <g class="cls-117">
            <path class="cls-86" d="M896.53,359.8c-10.16,10.08-21.28,19.19-33.18,27.14,10.15-10.09,21.29-19.18,33.18-27.14h0Z"/>
          </g>
          <path class="cls-84" d="M903.21,349.1s8.61,2.61,5.2,14.87c0,0-5.4,12.19-17.04,17.33,0,0,13.31-8.83,15.68-18.91,2.27-9.62-3.35-12.26-3.84-13.29Z"/>
        </g>
        <g>
          <path class="cls-98" d="M894.8,411.9s-4.16-15.8-32.83-6.95c0,0-27.67,8.91-23.09,24.54,0,0,2.39,12.47,35.07,5.2,0,0,23.62-5.55,20.86-22.79Z"/>
          <g class="cls-117">
            <path class="cls-86" d="M881.46,415.12c-13.36,6.23-27.29,11.23-41.58,14.87,13.36-6.24,27.3-11.22,41.58-14.87h0Z"/>
          </g>
          <path class="cls-84" d="M891.47,406.64s7.75,6.23.5,17.66c0,0-9.21,10.55-22.42,11.19,0,0,16.03-3.81,21.57-13.39,5.29-9.14.52-14.18.35-15.46Z"/>
        </g>
        <g>
          <path class="cls-104" d="M868.14,465.45s-4.82-17.79-35.15-8.59c0,0-29.27,9.29-24,26.91,0,0,2.85,14.02,37.49,6.68,0,0,25.04-5.64,21.66-25Z"/>
          <g class="cls-117">
            <path class="cls-86" d="M854,468.73c-14.15,6.49-28.86,11.73-43.94,15.63,14.15-6.5,28.87-11.72,43.94-15.63h0Z"/>
          </g>
          <path class="cls-84" d="M864.46,459.49s8.41,7.16.97,19.78c0,0-9.56,11.58-23.61,11.98,0,0,16.99-3.88,22.65-14.46,5.41-10.1.2-15.87,0-17.29Z"/>
        </g>
        <g>
          <path class="cls-105" d="M790.48,400.8s-17.76,4.88-8.87,34.38c0,0,9,28.46,26.6,23.15,0,0,13.99-2.92,6.99-36.64,0,0-5.4-24.37-24.71-20.89Z"/>
          <g class="cls-117">
            <path class="cls-86" d="M793.62,414.56c6.34,13.74,11.43,28.05,15.18,42.71-6.35-13.74-11.42-28.05-15.18-42.71h0Z"/>
          </g>
          <path class="cls-84" d="M784.51,404.45s7.21-8.28,19.72-1.14c0,0,11.46,9.21,11.72,22.92,0,0-3.71-16.53-14.21-21.95-10.01-5.17-15.81-.04-17.23.18Z"/>
        </g>
        <g>
          <path class="cls-103" d="M752.85,442.95s-18.08,8.71-1.61,40.07c0,0,16.33,30.17,34.13,21.01,0,0,14.45-5.83-.95-42.25,0,0-11.49-26.26-31.57-18.83Z"/>
          <g class="cls-117">
            <path class="cls-86" d="M759.44,457.76c9.94,14.27,18.76,29.32,26.32,44.97-9.95-14.26-18.75-29.32-26.32-44.97h0Z"/>
          </g>
          <path class="cls-84" d="M747.23,448.12s5.88-10.58,21.06-4.89c0,0,14.53,8.2,18,23.48,0,0-7.85-17.8-20.46-21.94-12.03-3.95-17.1,2.85-18.59,3.36Z"/>
        </g>
        <g>
          <path class="cls-101" d="M832.52,517.75s-3.29-13.17-29.68-4.82c0,0-25.48,8.37-21.8,21.38,0,0,1.79,10.42,31.78,3.27,0,0,21.69-5.42,19.71-19.84Z"/>
          <g class="cls-117">
            <path class="cls-86" d="M820.26,520.88c-12.27,5.88-25.13,10.53-38.33,13.82,12.27-5.89,25.13-10.52,38.33-13.82h0Z"/>
          </g>
          <path class="cls-84" d="M829.65,513.43s6.87,5-.09,14.85c0,0-8.72,9.17-20.77,10.12,0,0,14.72-3.71,20.06-11.95,5.1-7.86.91-11.96.8-13.02Z"/>
        </g>
        <g>
          <path class="cls-102" d="M753.45,504.95s-13.57.31-11.24,27.89c0,0,2.54,26.7,16.06,25.98,0,0,10.56.55,10.19-30.28,0,0-.5-22.35-15.01-23.59Z"/>
          <g class="cls-117">
            <path class="cls-86" d="M753.8,517.59c3.03,13.27,4.73,26.83,5.04,40.44-3.04-13.26-4.72-26.83-5.04-40.44h0Z"/>
          </g>
          <path class="cls-84" d="M748.6,506.8s6.39-5.6,14.46,3.36c0,0,7.02,10.53,5.3,22.49,0,0-.38-15.17-7.24-22.2-6.54-6.71-11.46-3.53-12.53-3.65Z"/>
        </g>
      </g>
      <g>
        <path class="cls-110" d="M227.02,501.72s-101.26-110.98-124.88-168.05"/>
        <g>
          <path class="cls-19" d="M64.59,365.51s-2.57,14.35,24.86,17.92c0,0,26.61,3.15,28.77-11.23,0,0,2.78-10.99-27.41-17.33,0,0-21.93-4.34-26.22,10.65Z"/>
          <g class="cls-117">
            <path class="cls-86" d="M77.01,367.89c13.59-.2,27.2.97,40.56,3.52-13.59.21-27.2-.98-40.56-3.52h0Z"/>
          </g>
          <path class="cls-84" d="M65.37,371.01s-4.11-7.95,6.35-14.49c0,0,11.77-5.1,23.08-.67,0,0-14.9-2.91-23.21,2.77-7.93,5.42-5.87,11.29-6.22,12.39Z"/>
        </g>
        <g>
          <path class="cls-16" d="M106.01,287.91s-16.46-.43-16.18,28.84c0,0,.64,28.35,17.07,28.33,0,0,12.74,1.17,15.12-31.42,0,0,1.43-23.64-16.02-25.76Z"/>
          <g class="cls-117">
            <path class="cls-86" d="M105.28,301.29c2.17,14.21,2.98,28.63,2.4,43-2.18-14.21-2.97-28.63-2.4-43h0Z"/>
          </g>
          <path class="cls-84" d="M99.97,289.59s8.25-5.56,17.21,4.36c0,0,7.54,11.51,4.36,24.05,0,0,.93-16.05-6.73-23.86-7.31-7.45-13.56-4.36-14.84-4.55Z"/>
        </g>
        <g>
          <path class="cls-17" d="M140.45,316.85s-16.15-2.45-19.42,27.37c0,0-2.81,28.94,13.36,30.94,0,0,12.39,2.76,18.69-30.12,0,0,4.28-23.89-12.64-28.19Z"/>
          <g class="cls-117">
            <path class="cls-86" d="M138.11,330.38c.42,14.74-.53,29.51-2.86,44.06-.43-14.74.54-29.51,2.86-44.06h0Z"/>
          </g>
          <path class="cls-84" d="M134.3,317.82s8.79-4.64,16.41,6.55c0,0,6.03,12.65,1.37,25.02,0,0,2.86-16.23-3.73-25.11-6.29-8.48-12.81-6.11-14.05-6.46Z"/>
        </g>
        <g>
          <path class="cls-18" d="M108.75,397.61s-1.25,9.4,13.25,11.18c0,0,14.07,1.52,15.1-7.89,0,0,1.38-7.22-14.59-10.75,0,0-11.61-2.39-13.76,7.46Z"/>
          <g class="cls-117">
            <path class="cls-86" d="M115.32,398.91c7.16-.88,14.46-.38,21.43,1.48-7.16.89-14.46.37-21.43-1.48h0Z"/>
          </g>
          <path class="cls-84" d="M109.2,401.18s-2.23-5.1,3.24-9.57c0,0,6.17-3.55,12.18-.9,0,0-7.88-1.6-12.23,2.27-4.15,3.69-3.01,7.48-3.19,8.2Z"/>
        </g>
        <g>
          <path class="cls-26" d="M35.2,308.69s-9.2,12.67,19.54,30.53c0,0,28.03,17.02,36.79,4.1,0,0,7.94-9.28-22.62-31.29,0,0-22.32-15.73-33.71-3.34Z"/>
          <g class="cls-117">
            <path class="cls-86" d="M47.88,317.53c15.07,7.02,29.57,15.28,43.28,24.69-15.08-7.01-29.56-15.28-43.28-24.69h0Z"/>
          </g>
          <path class="cls-84" d="M33.62,314.48s-1.03-9.92,13.44-10.82c0,0,15.27,1.19,25.82,11.44,0,0-15.18-10.65-26.89-9.46-11.17,1.14-11.5,7.95-12.36,8.84Z"/>
        </g>
      </g>
      <g>
        <path class="cls-22" d="M798.22,588s58.5-65,101-56.5c0,0,25.5,7.5,0,48l-8.67,13.5s-4,6.83,4,5.5,27.33-2.33,32.17,13-3.67,37.17-39.67,54l-75.5-38.67-13.33-38.83Z"/>
        <polygon class="cls-86" points="839.54 627.13 891.88 546.83 841.23 628.2 839.54 627.13 839.54 627.13"/>
        <polygon class="cls-86" points="828.74 622.46 842.22 564.17 830.7 622.88 828.74 622.46 828.74 622.46"/>
        <polygon class="cls-86" points="845.22 634.72 916.38 611.17 845.88 636.61 845.22 634.72 845.22 634.72"/>
        <path class="cls-82" d="M897.88,531.17s15.67,2.67,12.17,23c0,0-1,10.83-9.67,23.17,0,0,19-36.67-2.5-46.17Z"/>
        <path class="cls-82" d="M915.22,599.67s12.75,3.67,12.75,19.83c0,0,2.08,10.38-10.25,24.38,0,0,21.67-27.88-2.5-44.21Z"/>
      </g>
      <g>
        <path class="cls-20" d="M130.22,737.33S6.72,691.33.72,615.33c0,0-11.25-60.67,55.42-22,66.67,38.67,74.08,51.33,74.08,51.33v92.67Z"/>
        <polygon class="cls-77" points="137.87 706.73 27.88 604 139.23 705.26 137.87 706.73 137.87 706.73"/>
        <path class="cls-81" d="M.72,598.25s6.5-18.75,28-13.5c0,0,20,4.25,47.25,21,27.56,16.94-26.65-19.73-44.75-24,0,0-27-9.75-30.5,16.5Z"/>
      </g>
      <line class="cls-116" x1="432.88" y1="514.67" x2="436.88" y2="523.67"/>
      <g>
        <path class="cls-25" d="M312.2,263.31l72.67-43.33,14.67,29.33,45.33,145.33-36.67,112.67-.67,146.67s61.33,39.33,76,104l-142,2.67-29.33-497.33Z"/>
        <path class="cls-21" d="M377.55,217s33-.33,56,59.67l30.64,97.31-10,142-7.33,81.33-.31,91.36-12.83-13-12.5-11.5-13.67-10.5c.46-19.44,0-42,.33-63.5.52-33.53-4.03-68.93,6.83-117.67,19.5-87.5,3.87-226.91-38.5-240.83l1.33-14.67Z"/>
        <path class="cls-85" d="M365.03,39.38c-6.34-3.7-11.6-8.72-16.77-13.82-4.93-4.92-9.92-10.66-14.36-16.04,7.15,7.88,14.82,15.72,23.22,22.25,2.74,2.1,5.72,4.28,8.77,5.81,0,0-.85,1.81-.85,1.81h0Z"/>
        <g>
          <g>
            <g>
              <ellipse class="cls-28" cx="361.22" cy="39.33" rx="42.67" ry="39.33"/>
              <path class="cls-24" d="M215.55,263s-18-41.67,26.67-80.33c0,0,17.67-14.33,34.67-24.33,0,0,36.67-21.67,48.67-52,0,0,18-82.33,79-82.67,61-.33,111,39.33,124.33,85.33,0,0-5.33-15.67-24.33-37.33,0,0,38,43.67,15,75.67s-49,32.33-64,35.67l-240,80Z"/>
              <path class="cls-83" d="M492.97,105s13.5,29.25-23.75,72c0,0-3.25,4.5-4.75,6.75,0,0,10-4.25,17.5-7.75l-5.42,1.17s36.42-11.42,35.67-49.67c0,0-1.25-19.75-16.5-25.75,0,0-4.5-4.75-23,5.75,0,0-31.75,17-71.25,13,0,0,15.25,6.75,59.5-4.25,0,0,22-7,32-11.25Z"/>
              <path class="cls-2" d="M457.22,185.5c15-3.33,39.33-6.17,62.33-38.17s-15-75.67-15-75.67c19,21.67,24.33,37.33,24.33,37.33-13.33-46-63.33-85.67-124.33-85.33,0,0-15.08.58-27.33,6.08,0,0,33-12.5,74.75,6.75,0,0,33,15.5,45.25,57.5,0,0,1.5-6.25,0-15.75,0,0,30,29,20.75,63,0,0,3-25.25-20.5-39.5,0,0,19.42,10.42,12.92,40.25-2.65,12.17-22.09,32.38-49.33,41.67l-3.83,1.83Z"/>
              <g>
                <g>
                  <path class="cls-77" d="M402.88,121.67l-18,17s1.33-23.67-17.33-23.67c0,0-15-1.33-17.67,16,0,0-2.33,19.33,10.67,28.33,0,0-4.67,24.33-40,38.33,0,0-12.67,6.33,4.33,60.67,0,0,17.67,60.67,55.67,73.33,0,0,34.67-25.33,1.33-94,0,0,6.67-8,15.67-12,0,0,12.33,9,31.33-.67,19-9.67,34.34-39.33,39-46,0,0,40.33-44,23.67-77.33,0,0-34.67,26-88.67,20Z"/>
                  <path class="cls-96" d="M363.39,128.4s8.27-4.35,7.83,8.7c0,0-3.05,18.71-10.01,10.88-6.96-7.83-1.74-16.97,2.18-19.59Z"/>
                </g>
                <path class="cls-27" d="M360.55,159.33s1.42,2.92,6.17,1.92c0,0-2.42,41.5,31.17,64.75,0,0-7.83,2.33-16,11.67,0,0-11,12.5-16.33,20.17,0,0-28.83,30.33-38.08,8.17,0,0-21.33-53.42-6.92-68.33,0,0,15.92-6.04,27.17-17.79,12.79-13.36,12.83-20.54,12.83-20.54Z"/>
                <path class="cls-79" d="M327.47,265.75s23.25,13,46.5,15c0,0-23.5,3.25-43-5.5,0,0-3-7.5-3.5-9.5Z"/>
              </g>
            </g>
            <path class="cls-85" d="M365.55,36.94c5.92,7.76,13.72,14.14,21.35,20.22,5.39,4.26,12.38,9.15,18.1,13.02,0,0,6.22,4.08,6.22,4.08l-6.36-3.87c-12.53-7.88-25.16-16.42-35.85-26.69-1.78-1.79-3.52-3.52-5.12-5.64,0,0,1.66-1.12,1.66-1.12h0Z"/>
            <path class="cls-85" d="M494.97,93c-2.49-.78-5.23-.74-7.82-.65-4.38.21-8.7,1.02-12.96,2.02-6.82,1.61-13.49,3.83-20.03,6.33-6.7,2.52-13.75,3.7-20.84,4.34-12.81,1.08-25.84-.38-38.22-3.8-14.65-4.89-28.54-14.05-36.73-27.37-3.63-6.12-5.79-13.08-6.15-20.12.8,6.97,3.13,13.74,6.98,19.6,8.11,12.46,21.41,20.78,35.19,25.74,12.53,3.51,25.79,5.05,38.79,4.14,6.94-.53,13.88-1.77,20.44-3.97,6.67-2.34,13.44-4.42,20.37-5.85,4.34-.82,8.74-1.46,13.16-1.48,2.6,0,5.38.14,7.83,1.07h0Z"/>
            <path class="cls-85" d="M446.97,118.25c-35.3,10.03-79.93,4.43-100.14-29.63-2.84-4.52-4.97-9.43-6.86-14.37,0,0,1.74,3.57,1.74,3.57,1.6,3.42,3.77,7.17,5.94,10.27,21.53,32.71,63.69,37.4,99.32,30.16h0Z"/>
            <path class="cls-85" d="M337.72,77.5c3.22,15.57,8.06,30.68,15,45-9.26-12.65-14.62-29.36-15-45h0Z"/>
          </g>
          <path class="cls-83" d="M344.72,60c-10.81-5.86-18.02-17.21-20.5-29.08-.65-3.28-.95-6.84-1-10.17.37,2.78.74,5.85,1.38,8.6,2.65,12.2,9.69,23.61,20.12,30.65h0Z"/>
        </g>
        <path class="cls-2" d="M228.79,235.29c.22-19.85,14.22-37.25,28.78-49.46,15.03-12.43,32.56-21.35,50.59-28.52-17.85,7.46-35.21,16.66-49.94,29.28-12.57,10.89-23.73,24.87-26.89,41.54-.4,2.31-.67,4.76-.54,6.97,0,0-1.99.18-1.99.18h0Z"/>
        <path class="cls-83" d="M240.72,228c1.38-13,9.8-23.97,18.92-32.78,1.19-1.02,3.67-3.3,4.82-4.26,1.05-.82,3.98-3.09,5.08-3.94,2.32-1.66,4.71-3.23,7.07-4.84l7.37-4.37c5.52-2.44,10.94-5.16,16.26-8.03,10.57-5.76,20.89-12.17,29.97-20.09,4.61-3.85,8.91-8.14,12.26-13.19-9.13,15.49-26.45,25.55-41.75,34.16-5.26,2.84-10.95,5.69-16.25,8.02,0,0-7.32,4.34-7.32,4.34-2.34,1.6-4.71,3.15-7.01,4.8-1.09.84-3.98,3.09-5.03,3.91-1.14.95-3.63,3.23-4.77,4.22-8.96,8.79-17.25,19.46-19.61,32.05h0Z"/>
        <path class="cls-95" d="M381.88,237.67s12.5,26.17,14.08,46.08c0,0,4.17,30.08-15.42,47.92l2.67.58s17.25-14.25,15-48.75c0,0-1.75-22.25-14.25-48l-2.08,2.17Z"/>
        <path class="cls-23" d="M174.55,308.67s36-98.67,142.67-113.33l4.33,1.33s-23.67,1,14,96.67c0,0,18.67,58.33,18.67,138,0,0,3.5,307.17,5,317.67l-229,3s-10.67-260.67,44.33-443.33Z"/>
      </g>
      <path class="cls-108" d="M317.22,195.33l5.33,1.67s-16.33,5.75,2.67,60.25c0,0,12.25,38.25,19.67,75.75,0,0-13.67-47-27.67-92.33,0,0-14.67-39.33,0-45.33Z"/>
      <path class="cls-108" d="M383.97,235.75l3.08-2.92s32.17,24.67,33.42,106.17c0,0-9-77.5-36.5-103.25Z"/>
      <path class="cls-108" d="M446.55,318.67s4.33,69.32-16.34,140.65c0,0,12.67-24.65,22-123.99l-5.67-16.67Z"/>
      <path class="cls-78" d="M272.88,207.67s-1.33,33.67,30.33,94.67c34.62,66.69,21.75,37.92,35,82.92,0,0,0-16.25-31-67.25,0,0-38.33-67.67-38.5-109l4.17-1.33Z"/>
      <path class="cls-108" d="M274.88,206.67s-1.33,33.67,30.33,94.67c34.62,66.69,29.5,67.67,39.5,117.17,0,0-4.5-50.5-35.5-101.5,0,0-38.33-67.67-38.5-109l4.17-1.33Z"/>
      <path class="cls-29" d="M175.72,392s23.83,25,57.5,27l2,5s-37.5-4.5-59.5-32Z"/>
      <path class="cls-15" d="M166.89,474.56c7.08-.2,14.13-1.1,21.09-2.37,1.74-.34,3.48-.63,5.21-1.01l5.17-1.16,5.13-1.35c1.71-.43,3.38-1.01,5.08-1.51l2.53-.78,2.49-.89c1.66-.6,3.33-1.16,4.97-1.8l4.91-1.96c1.66-.59,3.26-1.34,4.87-2.04,1.62-.7,3.27-1.33,4.86-2.09,1.6-.75,3.18-1.52,4.79-2.25,1.63-.7,3.18-1.54,4.74-2.37,1.59-.79,3.15-1.62,4.76-2.38l.11.17c-5.8,4.1-11.94,7.83-18.45,10.75-1.63.73-3.23,1.52-4.91,2.14l-5.01,1.9c-1.68.59-3.4,1.09-5.09,1.65l-2.55.81-2.58.7c-1.72.45-3.42.99-5.16,1.38l-5.2,1.21-5.24,1.03c-1.75.34-3.51.58-5.27.87-7.04,1.02-14.14,1.66-21.25,1.59v-.2Z"/>
      <line class="cls-112" x1="258.22" y1="470" x2="138.89" y2="578"/>
      <line class="cls-115" x1="277.22" y1="500" x2="127.22" y2="643"/>
      <line class="cls-114" x1="302.78" y1="521.61" x2="161.66" y2="673.38"/>
      <line class="cls-113" x1="337.53" y1="533.96" x2="214.91" y2="701.03"/>
      <path class="cls-9" d="M471.97,365.75c-2.42-8.33-1.5-4.25-1.5-4.25,0,0-10.75,1.75-21.25,13.17,0,0-79.67,27-83.33,111.67,0,0,13.67,113.67,78.33,175,0,0,30,34.67,93.67,37.67,0,0,98.33,5.67,182-28.33,0,0-7-21.33,4.33-51.67,0,0-37-14.67-117-28,0,0,41-25,89.33-25.67,0,0,18.33,1.67,77.67,29.67l13.67,8s31-4.33,40.33,29c0,0,12-20.67-22-50.67,0,0-54.67-49.67-63-59-8.33-9.33-75-92-81-103,0,0-46.62-51.33-96.75-60.08,0,0-4.62,4.25-4.63,3.97-.02-2.79.38,6.54-.12,10.53-1.5,12-6.75,18.75-14.5,22-8.87,3.72-29.25.5-43.5-6.5-12.64-6.21-28.33-15.17-30.75-23.5Z"/>
      <path class="cls-91" d="M223.22,395.67c11.93,27.55,24.43,54.97,39.69,80.85,1.6,2.64,3.47,5.52,5.12,8.15.92,1.31,2.74,3.95,3.64,5.27,13.9,20.02,34.57,36.09,58.39,42.16,8.31,2.12,16.93,2.79,25.49,2.22-8.56,1.01-17.28.56-25.72-1.27-23.31-5.3-43.74-20.3-57.87-39.36-3.87-5.08-7.39-10.75-10.7-16.21-15.17-26.03-27.38-53.69-38.05-81.83h0Z"/>
      <g>
        <path class="cls-10" d="M567.22,194.33s25,7.67,34.67,36.67c9.67,29-10.33,48.67-19,50.33l-94.67,65s-54.67,1.33-67.67-50.67c0,0-7.67-44.33,14.67-69.67,0,0-21.67,10.67-17.67,32,0,0-15.67-40,55.67-74,0,0,57-26.33,94,10.33Z"/>
        <path class="cls-80" d="M530.72,192.5s-48.25,9-94.5,68.5c0,0,40-46.25,94.5-68.5Z"/>
        <path class="cls-90" d="M529.47,204.75s-21.75,26.75-36.75,37.5c0,0-18.5,16-26.5,22.25,0,0-27.25,23.75-13,46,0,0-9.25-27.75,16.5-46.5,13.74-10.01,50.75-41.5,59.75-59.25Z"/>
        <path class="cls-8" d="M520.22,258.67c10.79-2.91,30.33-9.67,32.33-22,2.99-18.45,11.33-48.33-13.67-45.33,0,0-6.67,23-59.33,69.33,0,0-15,8.33-21.67,21.67,0,0,20.33-12.33,62.33-23.67Z"/>
        <path class="cls-7" d="M534.22,192s-28.67,13-48.67,27.33c0,0-41,26.33-39.67,53.33,0,0,13.33-11,29.33-20.33,0,0,16.67-9,33-25l27-30.33-1-5Z"/>
        <path class="cls-87" d="M582.88,281.33c8.67-1.67,28.67-21.33,19-50.33-9.67-29-34.67-36.67-34.67-36.67-37-36.67-94-10.33-94-10.33-71.33,34-55.67,74-55.67,74-4-21.33,17.67-32,17.67-32,0,0,32-40,84.67-37.67,0,0-34,6.67-53,24.33,0,0,31-20,65.33-21.33,0,0,2.67,34-33.33,58,0,0-30.33,20.33-60.33,14.67,0,0,36.33,12.67,80-23.67,0,0,20-15.33,26-46,0,0,29.67,15.42-8.33,46.67,0,0-27.33,18.33-42.33,23.67,0,0,82-17.67,74.67-57.67l1.33,15.67s19,4.67,23,29.33c0,0,2,15-10,29.33Z"/>
        <path class="cls-78" d="M568.22,222.5s12.67-6.33,23,6c0,0,16.25,23.75-4.59,46.55,0,0,19.34-22.8,1.09-46.3,0,0-7.5-8-16.83-3.08l-2.67-3.17Z"/>
        <g>
          <path class="cls-13" d="M569.55,224.67s19,17.67,19.67,52c0,0,4.67,5.67,7.33,23.67,0,0,6.33,43.67-22.33,51l-12.67,11.33s2.67,21.33-7.33,30c0,0-24.33,23.33-67.33-10.67,0,0-12.33-8.33-22-15.33,0,0,26-19.33,33.33-43,0,0-29.67-6.67-23.33-35.33,0,0,6-11,19.33-8.67,0,0,9.67,3,14.67,14.33,0,0,.67-20.33,16.67-34.67,0,0,33.33-10.67,44-34.67Z"/>
          <path class="cls-97" d="M576.88,277.67s2.7,5.05,9.22,13.5c0,0,6.78,6.5,3.95,11.47l-3.37,2.15s3.51-2.25-.57-8.96c0,0-5.89-5.17-9.23-18.17Z"/>
          <path class="cls-89" d="M570.79,303.3s15.13,2.44,20.11-2.06c0,0,1.05,7.61-9.73,11.68,0,0-9.05.43-10.38-9.62Z"/>
          <path class="cls-96" d="M488.6,294.1s6.77-6.44,9.91,6.25c0,0,2.16,18.84-6.67,13.19-8.83-5.64-6.29-15.86-3.23-19.44Z"/>
          <path class="cls-14" d="M498.05,323.58s1.83,1.42,6.17-1.58c0,0,20.08,39.67,70.33,29,0,0-19.17,17.33-27.33,26.67,0,0,.33,17-8.67,24.33,0,0-2.33,4.33-32.33-5.33,0,0-32.67-9.33-37.33-32.33,0,0,5.17-3.96,15.33-16.67,13.33-16.67,13.83-24.08,13.83-24.08Z"/>
          <path class="cls-96" d="M535.32,263.47s15.9-12.47,24.34-7.64c10.42,5.96-15.02,2.36-24.34,7.64Z"/>
          <path class="cls-96" d="M588.05,262.67s3.1-6.94-7.17-7.33c0,0-5.67,3.61.76,5.1,0,0,2.24-.43,6.41,2.24Z"/>
          <g>
            <path class="cls-89" d="M555.95,277.6c-.05,4-2.2,7.23-4.79,7.19-2.6-.03-4.66-3.31-4.61-7.31.05-4.01,2.2-7.23,4.79-7.19,2.6.03,4.66,3.31,4.61,7.31Z"/>
            <path class="cls-4" d="M555.94,277.85c-.05,3.71-1.88,6.7-4.1,6.67-2.22-.03-3.98-3.06-3.93-6.78.05-3.71,1.88-6.7,4.1-6.67,2.22.03,3.98,3.06,3.93,6.78Z"/>
          </g>
          <g>
            <path class="cls-89" d="M587.63,276.83c-.04,3.41-1.62,6.16-3.53,6.13-1.91-.02-3.41-2.81-3.37-6.22.04-3.41,1.62-6.16,3.53-6.13,1.91.02,3.41,2.81,3.37,6.22Z"/>
            <path class="cls-4" d="M587.63,277.05c-.04,3.16-1.39,5.71-3.02,5.69-1.63-.02-2.91-2.6-2.87-5.76.04-3.16,1.39-5.71,3.02-5.69,1.63.02,2.91,2.6,2.87,5.76Z"/>
          </g>
          <path class="cls-89" d="M565.55,320.92l-1.58-1.92s-1.42,2.42-1.25,3.58,1.25-1,2.83-1.67Z"/>
          <path class="cls-97" d="M570.47,322.25s4.5,3.08,12.33,1.08c0,0,3-1.58,3.58-4.42,0,0-3.25,4.17-15.92,3.33Z"/>
          <path class="cls-89" d="M565.38,320.83s15,1.83,21.5-2.5c0,0-1.67,2.83-4.83,4,0,0-7,2.67-16.67-1.5Z"/>
          <path class="cls-89" d="M585.47,319.42s.67-2.08,1.25-1.75.33,1.33.17,1.58-.5.25-1.42.17Z"/>
          <path class="cls-89" d="M572.72,329.25s8.42.58,12.5-1.33c0,0-2.67,3.83-12.5,1.33Z"/>
          <g>
            <path class="cls-89" d="M543.13,280.42s-4.33.42-8.67-.83c0,0,4.33,2.92,8.67.83Z"/>
            <path class="cls-89" d="M543.47,282.92s-4.67-.42-6.5,2.25c0,0,4.17-1.75,6.5-2.25Z"/>
          </g>
          <path class="cls-89" d="M533.47,341.5s19.67,12.41,41.92,9.37l-3.17,1.89s-21.92,3.61-38.75-11.26Z"/>
        </g>
      </g>
      <g>
        <path class="cls-11" d="M397.88,226s-27-13.33-31.67-63c0,0,24-24.33,36.67-33.67,0,0,46,3.33,80-11.33,0,0,12.67,5.33,7.33,23.67,0,0-9.33,25.33-23.67,38,0,0-29.33,65.67-68.67,46.33Z"/>
        <path class="cls-96" d="M423.95,137.31s23.74-5.57,24.7,6.39c.96,11.97-14-5.95-24.7-6.39Z"/>
        <path class="cls-96" d="M474.88,169s5.67-10-5.67-13.33c0,0-7,1.33-2.33,6,0,0,6.33-.33,8,7.33Z"/>
        <path class="cls-97" d="M457.55,166.17s-7.33,6.17-6.83,16.83c0,0,.5,10.67-3.33,11.67l-4-.17s4.17.17,4.67-7.67c0,0-.17-13.33,9.5-20.67Z"/>
        <path class="cls-89" d="M431.22,184.17s11,10.67,17.67,9.83c0,0-3.5,6.83-14.67,4,0,0-7.67-4.83-3-13.83Z"/>
        <path class="cls-97" d="M412.84,193.5s2.61,15,18.12,12c0,0-14.99,10.33-18.12-12Z"/>
        <path class="cls-89" d="M412.55,191.83s5,15.83,21.5,12.83c0,0-18.17,9.5-21.5-12.83Z"/>
        <g>
          <path class="cls-89" d="M433.98,160.2c-2.16,3.37-5.69,4.97-7.87,3.57-2.19-1.4-2.21-5.27-.05-8.65,2.16-3.37,5.69-4.97,7.88-3.57,2.19,1.4,2.21,5.27.05,8.65Z"/>
          <path class="cls-4" d="M433.84,160.42c-2,3.13-5.14,4.69-7.01,3.49-1.87-1.2-1.76-4.7.25-7.83,2-3.13,5.14-4.69,7.01-3.49,1.87,1.2,1.76,4.7-.25,7.83Z"/>
        </g>
        <g>
          <path class="cls-89" d="M463.28,178.75c-1.84,2.87-4.63,4.37-6.24,3.34-1.6-1.03-1.41-4.19.43-7.06,1.84-2.87,4.63-4.37,6.24-3.34,1.6,1.03,1.41,4.19-.43,7.06Z"/>
          <path class="cls-4" d="M463.17,178.94c-1.71,2.66-4.2,4.11-5.57,3.23-1.37-.88-1.1-3.75.61-6.41,1.71-2.66,4.2-4.11,5.57-3.23,1.37.88,1.1,3.75-.61,6.41Z"/>
        </g>
        <path class="cls-89" d="M399.22,226.83s-16-12.17-19.5-27.83c0,0,1.67,14.67,16.83,27.5l2.67.33Z"/>
      </g>
      <path class="cls-88" d="M828.22,632s12-20.67-22-50.67c0,0-54.67-49.67-63-59-8.33-9.33-75-92-81-103"/>
      <path class="cls-106" d="M450.05,374.17l-2.83,1.17s18,29.83,57.5,41c0,0,26.17,10.83,50.5.5l-105.17-42.67Z"/>
      <path class="cls-6" d="M565.47,359.25s-4.62,4.25-4.63,3.97c-.02-2.79.38,6.54-.12,10.53-1.5,12-6.75,18.75-14.5,22-8.87,3.72-29.25.5-43.5-6.5-12.64-6.21-28.33-15.17-30.75-23.5s-1.5-4.25-1.5-4.25c0,0-10.75,1.75-21.25,13.17,0,0,25.25,42.83,86.25,45.83,0,0,36,2,39.75-30.25,0,0,2-17-1.5-29,0,0-4.25-2.5-8.25-2Z"/>
      <path class="cls-12" d="M662.22,419.33c10.25,12.67,72.67,93.67,81,103,8.33,9.33,63,59,63,59,34,30,22,50.67,22,50.67-9.33-33.33-40.33-29-40.33-29l-13.67-8c-59.33-28-77.67-29.67-77.67-29.67,0,0,2.17-45.83-46.08-88.58,0,0-20-36-39.5-54.75l29.5-24s10,7,21.75,21.33Z"/>
      <path class="cls-92" d="M449.22,374.67l1.83-1.83s11.17,17,24.5,26.5c0,0,27,19.5,60.33,20.17,0,0,22.17.17,33-13.83,0,0,7.33-10,6.67-21.83,0,0,2,20.67-14.17,30,0,0-13.33,12.5-49,3.67,0,0-20.83-4.17-42.33-20.17,0,0-11.33-8.17-20.83-22.67Z"/>
      <path class="cls-38" d="M575.47,360.75s9.75,40.75-9.5,52.75l20.25,26.5s42.5-20.75,57.5-39.25c0,0-30.5-29.25-68.25-40Z"/>
      <path class="cls-39" d="M701.22,566.12s11.25-22.62,37.75-32.12c0,0-19,15.88-27.5,35.12l-10.25-3Z"/>
      <path class="cls-36" d="M714.47,570s8.75-16,32.75-23.75c0,0-15.62,9.62-23.12,27.12l-9.62-3.38Z"/>
      <path class="cls-3" d="M650.47,476.75s41.08,34.92,45.08,78.58l3.99.66s-4.49-45.5-49.08-79.24Z"/>
      <path class="cls-37" d="M496.22,509.5s15.5,81,57,92l23-1s76-41.5,120-43.5c0,0,0-33-48-92,0,0-15.5-19-21.5-29s-126.5,42.5-126.5,42.5l-10.5,7.5,6.5,23.5Z"/>
      <path class="cls-32" d="M447.97,651s9.75-50.25,84.75-68.5c0,0-27.75-21-43-101.75,0,0-66.75,1.5-115.75,36l1.75,16s16.5,78.25,69,129.25l3.25-11Z"/>
      <path class="cls-30" d="M536.55,585.67l-7.33-6.33s-30-.33-58.67,27.67c0,0,9.33-13.33,66-21.33Z"/>
      <g>
        <path class="cls-31" d="M483.54,745.99s-31.33-104.67,82-145.33c0,0,104.67-50.67,134-44.67l127.33,62.67s104,48.67,132,128l-475.33-.67Z"/>
        <path class="cls-35" d="M619.22,620.5s10.79-27.93,64-46c26.5-9-51.5,10-94.5,25.5,0,0,81.49-50.01,110.83-44.01l127.33,62.67s96.84,41.34,132,128c.91,2.25-159.16-96.16-276.16-63.16-9.74,2.75-63.5-63-63.5-63Z"/>
      </g>
      <path class="cls-33" d="M607.22,591c80,13.33,117,28,117,28-11.33,30.33-4.33,51.67-4.33,51.67-83.67,34-182,28.33-182,28.33-63.67-3-93.67-37.67-93.67-37.67,0,0,13.75-60.08,90-76.83,0,0,11.5,2.75,14.5,2.5s43.25,2.75,58.5,4Z"/>
      <g>
        <path class="cls-107" d="M373.72,529.5s7.5,25,10.75,32c0,0,124-59.75,174.5-93.75,0,0,54.25-10.5,79.75-37,0,0,4.75-5.5-2.75-9.5,0,0,8-6.5,12-13,0,0,7,8.75,10,23.38l9-3.38s-9,10.5-3.5,20.5l11-7s-11.5,10.25-5.5,22.5l14.75-11.75s-6.5,13.5-1,17.25l10-12.25-44.75-53.5s-8.75-7-20.75-17l-253.5,142.5Z"/>
        <g>
          <path class="cls-34" d="M356.55,431s23.17,6,41.67,7c0,0-.33-6.33,13.67-5.33,0,0,17.33-1.67,19,3.33l1.67,5.67s89-14.67,107.67-20c0,0,1.67-14,28-26,0,0,19.33-10.67,26.33-14,0,0,9-3.33,3.33,6.67l-8.33,9s15.67-7.67,26.33-12.33c0,0,11-7,12.67-2,0,0,6.33,4.33-25.67,21.67,0,0,31.33-19.33,35.67-17.33,0,0,13.67,3-27,26.67,0,0,33.67-20.67,34-14.67,0,0,6.33,5-26.33,27.33,0,0,18.33-7,20.33-3.67,0,0,10.67,15.33-82.33,38.33,0,0-59.67,32-123.33,51.33l4,9s-.67,11.67-32.67,14.67c0,0-2.67,1-5.33-7.33,0,0-60.33,14.33-92-4,0,0-35.45-18.72-62.33-77.67,0,0-48.33-98.33-45.67-136.33,0,0,2-28,29-42.33,27-14.33,56.99,2.67,73.33,40.67,0,0,39.33,85.33,54.34,121.66Z"/>
          <path class="cls-48" d="M433.88,512.67c63.67-19.33,123.33-51.33,123.33-51.33,93-23,82.33-38.33,82.33-38.33-2-3.33-20.33,3.67-20.33,3.67,32.67-22.33,26.33-27.33,26.33-27.33-.33-6-34,14.67-34,14.67,40.67-23.67,27-26.67,27-26.67-4.33-2-35.67,17.33-35.67,17.33,32-17.33,25.67-21.67,25.67-21.67-1.67-5-12.67,2-12.67,2-10.67,4.67-26.33,12.33-26.33,12.33l8.33-9c5.67-10-3.33-6.67-3.33-6.67-7,3.33-26.33,14-26.33,14-26.33,12-28,26-28,26-18.67,5.33-107.67,20-107.67,20,0,0-8.33,20.32,1.33,71Z"/>
          <path class="cls-46" d="M353.72,430.5s-18,13-76.5,4c0,0,51.5,19,76.5-4Z"/>
          <path class="cls-47" d="M355.88,432.83s-41.83,36.5-54.67,68.67c0,0,41.67,26.5,130,1.5,0,0-7.33-37.33,0-61.5,0,0-.33-5.17-2.5-5.83,0,0-2.67-3.5-26.17-1.33,0,0-2.33.33-3.33,5.33l-43.33-6.83Z"/>
          <path class="cls-45" d="M430.05,487.33s2.5,22.5,5.67,24.67c0,0,3,7.5,2.17,9.67,0,0-5.33.33-7.83-34.33Z"/>
          <path class="cls-49" d="M354.22,433s-47,27.5-56,70.5c0,0,17-35.5,56-70.5Z"/>
          <path class="cls-43" d="M384.43,438.53s-20.94,23.15-19.94,77.16c0,0,3.39-40.39,19.94-77.16Z"/>
          <path class="cls-44" d="M396.22,440s-15,33.5,2.5,87l.5,2-5.5,1s-18-48,2.5-92.5"/>
          <path class="cls-41" d="M430.47,438.5l2,3s-1,43,10.25,68.25l-7.5,2.25s-13-30.75-4.75-73.5Z"/>
          <path class="cls-2" d="M432.47,441.5l-.08,5.5s75.5-13.83,108.67-23.5l2.33-.83s1.5-12.17,24.67-24.17c0,0,16.5-7.83,25.5-14.17,0,0,4.17-3,6.17-2.5,0,0-2-2.33-8.5,1.5,0,0-14.67,7.83-18.17,9.5,0,0-30.33,13-32.83,28.83,0,0-50.33,11.17-107.75,19.83Z"/>
          <path class="cls-42" d="M599.05,385.33s-11.5,13.17-21.33,19.17c0,0,15.83-7.5,21.33-19.17Z"/>
          <path class="cls-40" d="M628.55,383s-.67,7.83-31.5,22.5c0,0,13.17-2.67,27.83-15.33,0,0,6-4.33,3.67-7.17Z"/>
          <path class="cls-50" d="M640.72,389.5s-6.33,13.33-38.5,24.67c0,0,7.5-1.17,18.17-5.67,0,0,21.83-12.67,20.33-19Z"/>
          <path class="cls-51" d="M646.05,400s-7.33,15-36.5,28c0,0,4.67-.67,10.33-2,0,0,17.5-11,24-20.33,0,0,2.5-2.5,2.17-5.67Z"/>
        </g>
        <g>
          <path class="cls-52" d="M679.47,418.5c9.25,1.75,7.5,10.75,7.5,10.75,10,2,5.75,12,5.75,12,9.25,3.25,4.25,13.5,4.25,13.5-9.25,19.5-14.25,15-14.25,15-3-4,3.5-16,3.5-16-13.75,17.5-17.25,10.5-17.25,10.5-3-7.5,7.75-22.75,7.75-22.75-11,14-13.25,7.25-13.25,7.25-3.25-8.25,8.5-22.25,8.5-22.25-11,12-12.75,7.75-12.75,7.75-3.25-2.75,0-16.25,0-16.25l-11-12.5c-2-3.75,1-5.5,1-5.5,5.75-3.25,17,7.25,17,7.25,0,0,11.88-6.25,13.25,11.25Z"/>
          <path class="cls-2" d="M696.97,454.75s5-10.25-4.25-13.5c0,0,4.25-10-5.75-12,0,0,1.75-9-7.5-10.75-1.38-17.5-13.25-11.25-13.25-11.25,0,0-11.25-10.5-17-7.25,0,0,9,2.75,14.75,10.38,0,0,4-2.38,8,.5s1.88,10.25,1.25,14.5c0,0,4.12-3.5,5.5-6.25,0,0,3.88,8.62.75,19.38,0,0,4.75-5.62,6.38-7.75,0,0,5.62,10.5,1.88,20.25,0,0,2.88-5.12,4.12-7.25,0,0,6.25,7.25,1.12,18.75,0,0,3.12-5.38,4-7.75Z"/>
          <path class="cls-63" d="M659.22,418.75s2.38-5.75,4.75-8.38c0,0-5.75-7.75-14.75-10.38,0,0-4.25,2.25.75,7.62,0,0,8,8.75,9.25,11.12Z"/>
          <path class="cls-65" d="M662.72,445.25s1.25-11.38,10.5-19.88c0,0,4.38-4.5,5.5-6.25,0,0,.62,3.38-6.38,11.62,0,0-6.88,7.12-9.62,14.5Z"/>
          <path class="cls-53" d="M685.84,430.75s-8.88,9.25-12.62,16.38c0,0-6,9.62-4.62,15.75,0,0,1.62-7.62,6.38-14.25,4.84-6.75,10.75-16.25,10.88-18.38"/>
          <path class="cls-62" d="M691.84,443.75s-10.88,16.62-10,24c0,0,11.88-21.38,10-24Z"/>
          <path class="cls-60" d="M665.84,408s-10.12,9.75-7.88,23.62c0,0,.62-9.62,7.88-23.62Z"/>
        </g>
      </g>
      <path class="cls-61" d="M787.88,603l-15.42-11.5,29.5-3.5,4.25-6.67c34,30,22,50.67,22,50.67-9.33-33.33-40.33-29-40.33-29"/>
      <g>
        <path class="cls-64" d="M724.22,618s17-21.67,48-20.67c0,0,15.67-15.67,33.33,4,0,0,25,8.67,23.67,40.33,0,0-6.33,28-49.33,26.33,0,0-13.33,5.67-60,3,0,0-7.67-26.67,4.33-53Z"/>
        <path class="cls-68" d="M755.22,615.5s9.25,3,27.75-.25c0,0,9-2.5,15.75-1,0,0-20.25,2.25-33.5,10.25,0,0-13.75,2.25-17.5.75,0,0-2-3,7.5-9.75Z"/>
        <path class="cls-66" d="M753.47,633.75s0,2.75,12.25,0c0,0,15.25-2.5,29.75-7.25l-27.5,11.5s-25.75,3.75-14.5-4.25Z"/>
        <path class="cls-67" d="M759.97,643.25s-.75,3.5,13,1c0,0,17.5-1.5,29-6,0,0-13.75,9-32.75,10.75s-12.5-3.5-9.25-5.75Z"/>
        <path class="cls-69" d="M809.22,648.25s-32,15.5-43,7.5c0,0-9,4.25-.75,5.5s29.5-2.25,43.75-13Z"/>
        <path class="cls-59" d="M787.88,602s-27.67.75-43.17,8.75c0,0,21.33-16,43.17-8.75Z"/>
        <path class="cls-57" d="M772.22,597.33s8.58-.33,15.67,4.67c0,0,7.83-1.75,13.08.75,0,0-8.5-8.83-28.75-5.42Z"/>
        <path class="cls-58" d="M724.22,618s-12.08,27.25-5.5,53c0,0,8,.5,13.5.5,0,0-20,4-5.75-55.75l-2.25,2.25Z"/>
        <path class="cls-2" d="M755.47,612.75s.25-5.25,16.75-9.5c0,0,32-8.5,45.75,6.25,0,0-10-7.75-36.25-6,0,0-15,1.25-26.25,9.25Z"/>
        <path class="cls-2" d="M754.22,634.75s-3.5-12.38,44-20.5c0,0-40.25,10.25-44,20.5Z"/>
        <path class="cls-2" d="M792.75,628.07s-33.86,9.29-33.09,15.82c0,0,4.71-5.83,34.11-16.28"/>
        <path class="cls-2" d="M801.84,638.5s-14,6.5-27,10.75c0,0-10.12,2.25-8.62,6.5,0,0-.67-2.04,12.38-6.62,13.88-4.88,20.75-8.88,23.25-10.62Z"/>
      </g>
      <path class="cls-56" d="M534.88,586.33s-35.67,10.67-53,46.67c0,0,6-16.33,53-46.67Z"/>
      <g>
        <path class="cls-55" d="M339.55,595.83c0,11.69-9.48,21.17-21.17,21.17s-21.17-9.48-21.17-21.17,9.48-21.17,21.17-21.17,21.17,9.48,21.17,21.17Z"/>
        <path class="cls-81" d="M311.22,575.83s7.67-.25,12.92,2c0,0,9.08,2.83,11.92,12.5,0,0,2.5,5.67,1.17,15.17,0,0,4-5.33,1.5-16,0,0-2-7.75-9-11.58,0,0-7.75-5.67-18.5-2.08Z"/>
        <rect class="cls-94" x="290.22" y="613" width="57" height="7" rx="3.38" ry="3.38"/>
        <rect class="cls-94" x="310.22" y="605" width="15" height="39" transform="translate(-307.99 939.84) rotate(-89.78)"/>
        <g>
          <path class="cls-54" d="M251.22,752v-76s5.33-39,45.33-48h25.67v126l-71-2Z"/>
          <path class="cls-75" d="M385.22,752v-76s-5.33-39-45.33-48h-25.67v126l71-2Z"/>
        </g>
      </g>
      <g>
        <g>
          <path class="cls-109" d="M276.22,753v-84s-.25-27,26.75-31.75"/>
          <line class="cls-109" x1="251.22" y1="717" x2="319.22" y2="717"/>
          <path class="cls-109" d="M306.22,688v65-82s.25-18.88,7.5-26.38"/>
          <line class="cls-109" x1="306.22" y1="687" x2="306.22" y2="756"/>
          <line class="cls-109" x1="276.22" y1="690" x2="276.22" y2="759"/>
        </g>
        <g>
          <path class="cls-109" d="M357.22,753v-84s.25-27-26.75-31.75"/>
          <line class="cls-109" x1="385.22" y1="717" x2="318.22" y2="717"/>
          <path class="cls-109" d="M327.22,688v65-82s-.25-18.88-7.5-26.38"/>
          <line class="cls-109" x1="327.22" y1="687" x2="327.22" y2="756"/>
          <line class="cls-109" x1="357.22" y1="690" x2="357.22" y2="759"/>
        </g>
      </g>
      <g>
        <g>
          <g>
            <path class="cls-76" d="M151.63,673.86s-30.43-36,13.56-66.99c0,0,17.34,37.28-13.56,66.99Z"/>
            <path class="cls-81" d="M141.54,649.38s-3.83-25.43,23.65-42.51c0,0-20.02,16.99-23.65,42.51Z"/>
            <path class="cls-1" d="M151.36,673.25s-5.1-24.56,6.8-47.45c0,0-7.71,19.69-6.8,47.45Z"/>
          </g>
          <path class="cls-81" d="M166.67,651.2s8.85-19.71-1.49-44.33l-4.25,3.56s10.34,10.6,5.73,40.77Z"/>
          <path class="cls-81" d="M147.45,630.2s5.15-10.19,15.6-19.04l-.91-1.55s-8.06,4.79-14.69,20.59Z"/>
        </g>
        <g>
          <rect class="cls-111" x="118.72" y="695.5" width="100" height="51"/>
          <line class="cls-111" x1="119.22" y1="720.5" x2="220.22" y2="720.5"/>
          <line class="cls-111" x1="168.72" y1="695" x2="168.72" y2="759"/>
          <line class="cls-111" x1="188.72" y1="696" x2="188.72" y2="759"/>
          <line class="cls-111" x1="139.72" y1="695" x2="139.72" y2="761"/>
        </g>
        <path class="cls-72" d="M151.3,673.51s22.36-56.26-40.97-78.6c0,0-6.47,52.99,40.97,78.6Z"/>
        <g>
          <path class="cls-73" d="M147.72,682.75s-2.56-60.48-69.5-55.02c0,0,15.73,51.01,69.5,55.02Z"/>
          <path class="cls-81" d="M136.19,650.32s-18.11-28.24-57.98-22.59c0,0,32.92.36,57.98,22.59Z"/>
          <path class="cls-1" d="M147.44,681.93s-16.19-28.42-46.64-41.26c0,0,23.87,13.12,46.64,41.26Z"/>
        </g>
        <path class="cls-70" d="M190.55,677.2s-28.98-52.16,31-80.25c0,0,12.85,50.62-31,80.25Z"/>
        <g>
          <path class="cls-71" d="M195.22,678s2.33-55.33,63.33-50.33c0,0-14.33,46.67-63.33,50.33Z"/>
          <path class="cls-81" d="M205.72,648.33s16.5-25.83,52.83-20.67c0,0-30,.33-52.83,20.67Z"/>
          <path class="cls-1" d="M195.47,677.25s14.75-26,42.5-37.75c0,0-21.75,12-42.5,37.75Z"/>
        </g>
        <path class="cls-1" d="M190.55,677.2s-2.84-22.7,10.16-40.45c0,0-9.83,23.14-10.16,40.45Z"/>
        <path class="cls-77" d="M174.72,647.5s-17.25,18.25-.25,43c0,0,14-20.5.25-43Z"/>
        <path class="cls-1" d="M174.47,690.5s-3.25-19.5-.5-29.25c0,0,1.5,23.75.5,29.25Z"/>
      </g>
      <rect class="cls-74" x="86.22" y="747" width="906" height="26" rx="12" ry="12"/>
    </g>
  </g>
</svg>