<svg xmlns="http://www.w3.org/2000/svg" width="42" height="42" viewBox="0 0 42 42">
  <g id="Icon" transform="translate(0.205 -0.201)">
    <g id="Rectangle" transform="translate(-0.205 0.201)">
      <rect id="Rectangle-2" data-name="Rectangle" width="42" height="42" rx="12" fill="#f2f3f3"/>
    </g>
    <g id="Icon-2" data-name="Icon" transform="translate(7.585 7.585)">
      <path id="Path" d="M26.547.7a4.22,4.22,0,0,0-5.508.733l-2.7,3.076A3.374,3.374,0,0,0,15.186,2.3H14.4a2.144,2.144,0,0,1-1.189-.362,7.917,7.917,0,0,0-9.97.986L.248,5.912a.847.847,0,0,0,1.2,1.2L4.44,4.117a6.2,6.2,0,0,1,7.836-.775,3.815,3.815,0,0,0,2.126.64h.784a1.686,1.686,0,0,1,1.687,1.685h-5.9a.843.843,0,1,0,0,1.685h6.748a.844.844,0,0,0,.624-.295h0L22.3,2.542a2.532,2.532,0,0,1,2.53-.775L18.9,9.713a2.531,2.531,0,0,1-2.024,1.011H9.838a4.219,4.219,0,0,0-2.986,1.23l-.7.7a.847.847,0,1,0,1.2,1.2l.7-.7a2.532,2.532,0,0,1,1.788-.742h7.034a4.219,4.219,0,0,0,3.374-1.685L26.826,1.96a.926.926,0,0,0,.127-.674A.977.977,0,0,0,26.547.7Z" transform="translate(0 12.87)" fill="#849e9b"/>
      <path id="Shape" d="M4.217,11.8a.843.843,0,0,1-.843-.843V8.426H.843A.843.843,0,0,1,0,7.584V4.214a.843.843,0,0,1,.843-.843h2.53V.843A.843.843,0,0,1,4.217,0H7.591a.843.843,0,0,1,.843.843V3.371h2.53a.843.843,0,0,1,.843.843v3.37a.843.843,0,0,1-.843.843H8.435v2.528a.843.843,0,0,1-.843.843Z" transform="translate(10.968)" fill="#849e9b"/>
    </g>
  </g>
</svg>
