<svg id="Icon" xmlns="http://www.w3.org/2000/svg" width="42" height="42" viewBox="0 0 42 42">
  <rect id="Rectangle" width="42" height="42" rx="12" fill="#f2f3f3"/>
  <g id="Icon-2" data-name="Icon" transform="translate(8.533 7.384)">
    <path id="Shape" d="M22.5,27H2.5A2.519,2.519,0,0,1,0,24.468V5.906A2.519,2.519,0,0,1,2.5,3.375h.833V2.531a2.5,2.5,0,1,1,5,0v.844H10V2.531a2.5,2.5,0,1,1,5,0v.844h1.667V2.531a2.5,2.5,0,1,1,5,0v.844H22.5A2.519,2.519,0,0,1,25,5.906V24.468A2.519,2.519,0,0,1,22.5,27ZM1.667,10.125V24.468a.839.839,0,0,0,.833.844h20a.839.839,0,0,0,.833-.844V10.125ZM2.5,5.063a.839.839,0,0,0-.833.844V8.437H23.333V5.906a.839.839,0,0,0-.833-.844H18.333v.844a.833.833,0,1,1-1.667,0V5.063h-5v.844a.834.834,0,1,1-1.667,0V5.063H5v.844a.834.834,0,1,1-1.667,0V5.063ZM19.167,1.687a.84.84,0,0,0-.834.844v.844H20V2.531A.839.839,0,0,0,19.167,1.687Zm-6.667,0a.839.839,0,0,0-.833.844v.844h1.667V2.531A.839.839,0,0,0,12.5,1.687Zm-6.667,0A.839.839,0,0,0,5,2.531v.844H6.667V2.531A.839.839,0,0,0,5.834,1.687Z" transform="translate(0.467 -0.384)" fill="#849e9b"/>
    <path id="Shape-2" data-name="Shape" d="M7.714,12H4.286a.859.859,0,0,1-.858-.858V8.571H.857A.858.858,0,0,1,0,7.714V4.286a.858.858,0,0,1,.857-.858H3.428V.857A.858.858,0,0,1,4.286,0H7.714a.858.858,0,0,1,.857.857V3.428h2.571A.859.859,0,0,1,12,4.286V7.714a.858.858,0,0,1-.858.857H8.571v2.571A.858.858,0,0,1,7.714,12Zm-6-6.857V6.857H4.286a.858.858,0,0,1,.857.857v2.571H6.857V7.714a.858.858,0,0,1,.857-.857h2.571V5.143H7.714a.858.858,0,0,1-.857-.857V1.714H5.143V4.286a.858.858,0,0,1-.857.857Z" transform="translate(6.467 11.616)" fill="#849e9b"/>
  </g>
</svg>
