<svg id="Icon" xmlns="http://www.w3.org/2000/svg" width="38" height="38" viewBox="0 0 38 38">
  <rect id="Rectangle" width="38" height="38" rx="10" fill="#f8fbfb"/>
  <g id="Icon-2" data-name="Icon" transform="translate(9 9)">
    <path id="Shape" d="M.477,19.934A.837.837,0,0,1,0,19.168V3.984A4.241,4.241,0,0,1,1.161,1.13,3.611,3.611,0,0,1,3.847,0H16.154A3.61,3.61,0,0,1,18.839,1.13,4.237,4.237,0,0,1,20,3.984v7.867a4.237,4.237,0,0,1-1.161,2.855,3.61,3.61,0,0,1-2.685,1.129H4.931L1.316,19.76A.744.744,0,0,1,.77,20H.754A.606.606,0,0,1,.477,19.934Z" fill="#849e9b"/>
    <ellipse id="Oval" cx="1.154" cy="1.25" rx="1.154" ry="1.25" transform="translate(13.077 6.668)" fill="#849e9b"/>
    <ellipse id="Oval-2" data-name="Oval" cx="1.154" cy="1.25" rx="1.154" ry="1.25" transform="translate(4.615 6.668)" fill="#849e9b"/>
  </g>
</svg>
