<svg xmlns="http://www.w3.org/2000/svg" width="42" height="42" viewBox="0 0 42 42">
  <g id="Icon" transform="translate(0.284 -0.201)">
    <g id="Rectangle" transform="translate(-0.284 0.201)">
      <rect id="Rectangle-2" data-name="Rectangle" width="42" height="42" rx="12" fill="#f2f3f3"/>
    </g>
    <g id="Icon-2" data-name="Icon" transform="translate(7.716 7.201)">
      <path id="Shape" d="M22.781,27H4.219A4.224,4.224,0,0,1,0,22.781V21.094a.845.845,0,0,1,.844-.844V5.907A2.534,2.534,0,0,1,3.375,3.376H5.906a.844.844,0,1,1,0,1.687H3.375a.845.845,0,0,0-.844.844V20.25H5.063V16.031a4.223,4.223,0,0,1,4.218-4.218h.456a5.06,5.06,0,0,1-1.3-3.375V3.671a2.517,2.517,0,0,1,1.595-2.345L13.188.06a.845.845,0,0,1,.624,0l3.155,1.266a2.517,2.517,0,0,1,1.595,2.345V8.438a5.055,5.055,0,0,1-1.3,3.375h.456a4.223,4.223,0,0,1,4.219,4.218V20.25h2.531V5.907a.845.845,0,0,0-.844-.844H21.094a.844.844,0,1,1,0-1.687h2.531a2.534,2.534,0,0,1,2.531,2.531V20.25a.845.845,0,0,1,.844.844v1.687A4.224,4.224,0,0,1,22.781,27ZM1.687,21.937v.844a2.534,2.534,0,0,0,2.532,2.531H22.781a2.534,2.534,0,0,0,2.531-2.531v-.844ZM9.281,13.5A2.534,2.534,0,0,0,6.75,16.031V20.25h13.5V16.031A2.534,2.534,0,0,0,17.718,13.5H14.344v1.687a.844.844,0,0,1-1.687,0V13.5Zm.844-6.75V8.438a3.375,3.375,0,1,0,6.75,0V6.75Zm3.375-5L10.656,2.894a.841.841,0,0,0-.532.776V5.063h6.75V3.671a.84.84,0,0,0-.532-.776L13.5,1.755Z" fill="#849e9b"/>
      <path id="Path" d="M3.371,1.686a.843.843,0,0,1-.843.843.843.843,0,1,1-1.686,0,.843.843,0,1,1,0-1.686.843.843,0,1,1,1.686,0A.843.843,0,0,1,3.371,1.686Z" transform="translate(15.039 15.555)" fill="#849e9b"/>
    </g>
  </g>
</svg>
