<svg xmlns="http://www.w3.org/2000/svg" xmlns:xlink="http://www.w3.org/1999/xlink" width="41.135" height="67.047" viewBox="0 0 41.135 67.047">
  <defs>
    <clipPath id="clip-path">
      <rect id="Rectangle_735" data-name="Rectangle 735" width="39.434" height="40.963" fill="none"/>
    </clipPath>
    <clipPath id="clip-path-2">
      <path id="Path_169" data-name="Path 169" d="M28.434,198.938a.585.585,0,0,0,.584.565h0a.584.584,0,0,0,.41-.165l7.406-7.416-8.4-.677Z" transform="translate(-28.434 -191.245)" fill="none"/>
    </clipPath>
    <linearGradient id="linear-gradient" x1="-0.579" y1="1" x2="-0.558" y2="1" gradientUnits="objectBoundingBox">
      <stop offset="0" stop-color="#40678f"/>
      <stop offset="1" stop-color="#1a3858"/>
    </linearGradient>
    <clipPath id="clip-path-4">
      <rect id="Rectangle_731" data-name="Rectangle 731" width="22.089" height="24.889" fill="none"/>
    </clipPath>
    <clipPath id="clip-path-5">
      <path id="Path_170" data-name="Path 170" d="M22.089,112.692a4.343,4.343,0,0,1-3.061,1.242H10.6l-4.731,4.742a.6.6,0,0,1-.637.128.577.577,0,0,1-.369-.517v-4.353H4.321A4.309,4.309,0,0,1,0,109.591V97.5a4.34,4.34,0,0,1,1.789-3.541c-.116,2.555.435,6.742,5.224,7.312.407.049.8.1,1.178.147.9.115,1.721.235,2.487.369.789.137,1.51.288,2.169.462a10,10,0,0,1,3.05,1.274,5.541,5.541,0,0,1,2.361,3.636c.656,2.938,1.728,4.727,3.831,5.535" transform="translate(0 -93.958)" fill="none"/>
    </clipPath>
    <linearGradient id="linear-gradient-2" x1="0" y1="0.998" x2="0.008" y2="0.998" xlink:href="#linear-gradient"/>
    <clipPath id="clip-path-6">
      <path id="Path_171" data-name="Path 171" d="M4.321,88.994a4.288,4.288,0,0,0-2.532.837A4.363,4.363,0,0,0,0,93.384v12.092a4.309,4.309,0,0,0,4.321,4.344H19.028a4.349,4.349,0,0,0,4.367-4.344V93.384a4.387,4.387,0,0,0-4.367-4.39Z" transform="translate(0 -88.994)" fill="none"/>
    </clipPath>
    <linearGradient id="linear-gradient-3" x1="0" y1="1.236" x2="0.007" y2="1.236" xlink:href="#linear-gradient"/>
    <clipPath id="clip-path-9">
      <rect id="Rectangle_727" data-name="Rectangle 727" width="22.384" height="24.987" fill="none"/>
    </clipPath>
  </defs>
  <g id="Group_830" data-name="Group 830" transform="translate(-24 2.825)">
    <g id="Group_827" data-name="Group 827" transform="translate(24 -2.825)">
      <g id="Group_826" data-name="Group 826" transform="translate(0 0)" clip-path="url(#clip-path)">
        <g id="Group_814" data-name="Group 814" transform="translate(4.862 32.705)">
          <g id="Group_813" data-name="Group 813" clip-path="url(#clip-path-2)">
            <rect id="Rectangle_729" data-name="Rectangle 729" width="8.402" height="8.258" transform="translate(0 0)" fill="url(#linear-gradient)"/>
          </g>
        </g>
        <g id="Group_821" data-name="Group 821">
          <g id="Group_820" data-name="Group 820" clip-path="url(#clip-path)">
            <g id="Group_819" data-name="Group 819" transform="translate(0 16.068)" opacity="0.3" style="mix-blend-mode: multiply;isolation: isolate">
              <g id="Group_818" data-name="Group 818">
                <g id="Group_817" data-name="Group 817" clip-path="url(#clip-path-4)">
                  <g id="Group_816" data-name="Group 816" transform="translate(0 0)">
                    <g id="Group_815" data-name="Group 815" clip-path="url(#clip-path-5)">
                      <rect id="Rectangle_730" data-name="Rectangle 730" width="22.089" height="24.934" transform="translate(0 0)" fill="url(#linear-gradient-2)"/>
                    </g>
                  </g>
                </g>
              </g>
            </g>
          </g>
        </g>
        <g id="Group_823" data-name="Group 823" transform="translate(0 15.219)">
          <g id="Group_822" data-name="Group 822" clip-path="url(#clip-path-6)">
            <rect id="Rectangle_733" data-name="Rectangle 733" width="23.395" height="20.826" transform="translate(0 0)" fill="url(#linear-gradient-3)"/>
          </g>
        </g>
        <g id="Group_825" data-name="Group 825">
          <g id="Group_824" data-name="Group 824" clip-path="url(#clip-path)">
            <path id="Path_172" data-name="Path 172" d="M46.789,119.6l-2.3-6.568H41.414l-1.622,4.658-2.562,7.331h2.708l.86-3h4.321l.859,3h2.708Zm-5.359.426c.232-.749.439-1.431.621-2.029q.717-2.357.911-3.111.065.291.215.793c.077.258.358,1.173.843,2.738.147.475.313,1.026.5,1.609Z" transform="translate(-30.863 -93.706)" fill="#fff"/>
          </g>
        </g>
      </g>
    </g>
    <g id="Group_828" data-name="Group 828" transform="translate(25.701 23.259)">
      <g id="Group_811" data-name="Group 811" clip-path="url(#clip-path)">
        <path id="Path_164" data-name="Path 164" d="M116.743,4.321V16.413a4.4,4.4,0,0,1-1.113,2.948,4.353,4.353,0,0,1-3.232,1.466H97.692a4.466,4.466,0,0,1-4.435-4.413V4.321A4.355,4.355,0,0,1,95.287.677,4.448,4.448,0,0,1,97.692,0H112.4a4.309,4.309,0,0,1,4.345,4.32" transform="translate(-77.309 -0.001)" fill="#e5a194"/>
        <path id="Path_165" data-name="Path 165" d="M161.048,101.6V109.3a.551.551,0,0,1-.945.4l-7.426-7.416Z" transform="translate(-126.568 -84.229)" fill="#e5a194"/>
        <g id="Group_810" data-name="Group 810" transform="translate(15.948 0.653)" opacity="0.3" style="mix-blend-mode: multiply;isolation: isolate">
          <g id="Group_809" data-name="Group 809">
            <g id="Group_808" data-name="Group 808" clip-path="url(#clip-path-9)">
              <path id="Path_166" data-name="Path 166" d="M115.642,22.526a4.375,4.375,0,0,1-3.242,1.466h-.609v4.243a.565.565,0,0,1-.945.424l-4.684-4.666H97.693a4.466,4.466,0,0,1-4.435-4.413V7.486a4.394,4.394,0,0,1,2.03-3.667c-.088,2.165.339,5.452,3.344,6.756.089.038.187.075.28.109a7.034,7.034,0,0,0,1.644.387l.534.064c.784.1,1.522.194,2.213.3a29.339,29.339,0,0,1,3.257.655,11.916,11.916,0,0,1,1.9.677,5.618,5.618,0,0,1,3.355,4.208c.656,2.935,1.726,4.741,3.826,5.55" transform="translate(-93.258 -3.819)" fill="#e5a194"/>
            </g>
          </g>
        </g>
        <path id="Path_167" data-name="Path 167" d="M118.183,39.034c.287.3.56.594.845.876a20.016,20.016,0,0,0,1.7,1.575,2.943,2.943,0,0,0,1.284.643,3.2,3.2,0,0,0,1.593-.039,2.445,2.445,0,0,0,.916-.6,3.143,3.143,0,0,0,.769-1.059,2.923,2.923,0,0,0,.182-1.364,2.186,2.186,0,0,0-.273-.988c-.12-.2-.273-.376-.413-.565-.181.111-.348.216-.516.317a4.066,4.066,0,0,1-.965.39.1.1,0,0,1-.083-.024q-.549-.559-1.094-1.122a2.817,2.817,0,0,1-.2-.266,3.048,3.048,0,0,1,.321-.121,2.766,2.766,0,0,0,1.244-.764,5.036,5.036,0,0,0,.488-.558,1.9,1.9,0,0,0,.332-1.012,2.452,2.452,0,0,0-.051-.809.83.83,0,0,0-.768-.706,3.063,3.063,0,0,0-1.993.393,6,6,0,0,0-.969.754.638.638,0,0,1-.1.078l-1.41-1.351a3.805,3.805,0,0,1,2.416-1.336,3.125,3.125,0,0,1,2.285.574,6.042,6.042,0,0,1,1.585,1.672,3.124,3.124,0,0,1,.424,1.238,3.427,3.427,0,0,1-.035,1.2,2.219,2.219,0,0,1-.429.913c-.021.028-.041.056-.066.091l.947,1.031.409-.308q1.18-.89,2.358-1.783a.166.166,0,0,0,.054-.116c0-.7.006-1.394.008-2.09,0-.3,0-.591.005-.886,0-.032,0-.063,0-.1h-.612c-.195,0-.39,0-.585,0a.18.18,0,0,1-.152-.068q-.451-.5-.905-1l-.361-.4h.283q1.226-.009,2.453-.019,1.452-.014,2.9-.032a.246.246,0,0,1,.194.077q.688.677,1.382,1.348a.642.642,0,0,0,.076.056l-.016.025H130.5V43.663c-.172-.169-.329-.323-.484-.478-.318-.316-.635-.634-.955-.949a.207.207,0,0,1-.066-.163c0-.591.007-1.182,0-1.772-.007-.575-.028-1.151-.043-1.726,0-.017,0-.035-.01-.071-.1.067-.19.122-.274.188q-.744.578-1.484,1.162a.747.747,0,0,0-.167.193.3.3,0,0,0-.048.182,2.647,2.647,0,0,1-.082.938,3.932,3.932,0,0,1-.384,1.1,2.713,2.713,0,0,1-1.481,1.225,3.242,3.242,0,0,1-1.409.191,4.5,4.5,0,0,1-1.28-.327,7.043,7.043,0,0,1-1.924-1.194,28.178,28.178,0,0,1-2.4-2.294c-.227-.24-.228-.326-.025-.585.056-.072.115-.142.2-.246" transform="translate(-97.684 -25.943)" fill="#fff2e3"/>
        <path id="Path_168" data-name="Path 168" d="M118.183,39.034c.287.3.56.594.845.876a20.016,20.016,0,0,0,1.7,1.575,2.943,2.943,0,0,0,1.284.643,3.2,3.2,0,0,0,1.593-.039,2.445,2.445,0,0,0,.916-.6,3.143,3.143,0,0,0,.769-1.059,2.923,2.923,0,0,0,.182-1.364,2.186,2.186,0,0,0-.273-.988c-.12-.2-.273-.376-.413-.565-.181.111-.348.216-.516.317a4.066,4.066,0,0,1-.965.39.1.1,0,0,1-.083-.024q-.549-.559-1.094-1.122a2.817,2.817,0,0,1-.2-.266,3.048,3.048,0,0,1,.321-.121,2.766,2.766,0,0,0,1.244-.764,5.036,5.036,0,0,0,.488-.558,1.9,1.9,0,0,0,.332-1.012,2.452,2.452,0,0,0-.051-.809.83.83,0,0,0-.768-.706,3.063,3.063,0,0,0-1.993.393,6,6,0,0,0-.969.754.638.638,0,0,1-.1.078l-1.41-1.351a3.805,3.805,0,0,1,2.416-1.336,3.125,3.125,0,0,1,2.285.574,6.042,6.042,0,0,1,1.585,1.672,3.124,3.124,0,0,1,.424,1.238,3.427,3.427,0,0,1-.035,1.2,2.219,2.219,0,0,1-.429.913c-.021.028-.041.056-.066.091l.947,1.031.409-.308q1.18-.89,2.358-1.783a.166.166,0,0,0,.054-.116c0-.7.006-1.394.008-2.09,0-.3,0-.591.005-.886,0-.032,0-.063,0-.1h-.612c-.195,0-.39,0-.585,0a.18.18,0,0,1-.152-.068q-.451-.5-.905-1l-.361-.4h.283q1.226-.009,2.453-.019,1.452-.014,2.9-.032a.246.246,0,0,1,.194.077q.688.677,1.382,1.348a.642.642,0,0,0,.076.056l-.016.025H130.5V43.663c-.172-.169-.329-.323-.484-.478-.318-.316-.635-.634-.955-.949a.207.207,0,0,1-.066-.163c0-.591.007-1.182,0-1.772-.007-.575-.028-1.151-.043-1.726,0-.017,0-.035-.01-.071-.1.067-.19.122-.274.188q-.744.578-1.484,1.162a.747.747,0,0,0-.167.193.3.3,0,0,0-.048.182,2.647,2.647,0,0,1-.082.938,3.932,3.932,0,0,1-.384,1.1,2.713,2.713,0,0,1-1.481,1.225,3.242,3.242,0,0,1-1.409.191,4.5,4.5,0,0,1-1.28-.327,7.043,7.043,0,0,1-1.924-1.194,28.178,28.178,0,0,1-2.4-2.294c-.227-.24-.228-.326-.025-.585C118.04,39.209,118.1,39.139,118.183,39.034Z" transform="translate(-97.684 -25.943)" fill="none" stroke="#fff2e3" stroke-width="0.622"/>
      </g>
    </g>
  </g>
</svg>
