<svg xmlns="http://www.w3.org/2000/svg" xmlns:xlink="http://www.w3.org/1999/xlink" width="66.051" height="64.985" viewBox="0 0 66.051 64.985">
  <defs>
    <clipPath id="clip-path">
      <rect id="Rectangle_678" data-name="Rectangle 678" width="66.051" height="64.985" fill="none"/>
    </clipPath>
  </defs>
  <g id="Group_708" data-name="Group 708" clip-path="url(#clip-path)">
    <path id="Path_18" data-name="Path 18" d="M66.051,32.494c0,17.945-14.786,32.493-33.025,32.493S0,50.439,0,32.494,14.786,0,33.025,0,66.051,14.548,66.051,32.494" transform="translate(0 -0.001)" fill="#ffdfca"/>
    <path id="Path_19" data-name="Path 19" d="M196.886,321.676a6.112,6.112,0,1,0-6.112,6.112,6.112,6.112,0,0,0,6.112-6.112" transform="translate(-167.691 -286.562)" fill="#fff" fill-rule="evenodd"/>
    <path id="Path_20" data-name="Path 20" d="M401.685,321.676a6.112,6.112,0,1,0-6.112,6.112,6.112,6.112,0,0,0,6.112-6.112" transform="translate(-353.668 -286.562)" fill="#fff" fill-rule="evenodd"/>
    <path id="Path_21" data-name="Path 21" d="M419.663,247.218a9.078,9.078,0,0,1,2.348.132,4.118,4.118,0,0,0,2.327.3,5.645,5.645,0,0,0-1.651-2.015,7.841,7.841,0,0,0-2.931-1.037,3.332,3.332,0,0,0-2.652.613c-.75.537-1.211,1.343-.316,2.022.813.616,1.947.056,2.875-.019" transform="translate(-378.036 -222.078)" fill-rule="evenodd"/>
    <path id="Path_22" data-name="Path 22" d="M210.855,284.805a1.942,1.942,0,0,1,.027-.2c-.071.066-.091.133-.027.2" transform="translate(-191.441 -258.447)" fill="#002489" fill-rule="evenodd"/>
    <path id="Path_23" data-name="Path 23" d="M214.85,256.569c.817.132,2.566.894,2.731-.449.352-2.847-5.772-1.723-6.052,1.115a8.959,8.959,0,0,1,3.321-.666" transform="translate(-192.088 -231.078)" fill-rule="evenodd"/>
    <path id="Path_24" data-name="Path 24" d="M223.627,347.157a3.855,3.855,0,1,0-3.855-3.855,3.933,3.933,0,0,0,.174,1.16l2.765-.349-1.483,2.207a3.851,3.851,0,0,0,2.4.837" transform="translate(-199.574 -308.25)" fill-rule="evenodd"/>
    <path id="Path_25" data-name="Path 25" d="M413.014,348.813a3.855,3.855,0,1,0-3.855-3.855,3.93,3.93,0,0,0,.174,1.16l2.765-.349-1.483,2.207a3.851,3.851,0,0,0,2.4.837" transform="translate(-371.555 -309.754)" fill-rule="evenodd"/>
    <path id="Path_26" data-name="Path 26" d="M282.9,482.538a6.3,6.3,0,0,1,2.807-2.828,11.3,11.3,0,0,1,4.193-.634,13.055,13.055,0,0,1,4.376,1.174,9.02,9.02,0,0,1,2.526,2.35c-.018.064-.041.005-.091-.015" transform="translate(-256.897 -435.029)" fill="none" stroke="#000" stroke-linecap="round" stroke-miterlimit="10" stroke-width="1"/>
  </g>
</svg>
