<svg xmlns="http://www.w3.org/2000/svg" width="66.729" height="65.653" viewBox="0 0 66.729 65.653">
  <g id="Group_742" data-name="Group 742" transform="translate(-612.942 154.579)">
    <g id="Group_741" data-name="Group 741">
      <path id="Path_115" data-name="Path 115" d="M66.729,36.769C66.729,54.9,51.791,69.6,33.365,69.6S0,54.9,0,36.769,14.938,3.943,33.365,3.943s33.364,14.7,33.364,32.826" transform="translate(612.942 -158.522)" fill="#ffdfca"/>
      <path id="Path_116" data-name="Path 116" d="M59.567,88.359a6.185,6.185,0,1,0-6.185,6.185,6.185,6.185,0,0,0,6.185-6.185" transform="translate(583.378 -207.525)" fill="#fff" fill-rule="evenodd"/>
      <path id="Path_117" data-name="Path 117" d="M59.79,97.343a3.7,3.7,0,1,0-3.6-4.523l1.556.73s-.749.423-1.565.874a3.689,3.689,0,0,0,3.611,2.919" transform="translate(577.752 -212.395)" fill-rule="evenodd"/>
      <path id="Path_118" data-name="Path 118" d="M109.294,88.359a6.185,6.185,0,1,0-6.185,6.185,6.185,6.185,0,0,0,6.185-6.185" transform="translate(552.229 -207.525)" fill="#fff" fill-rule="evenodd"/>
      <path id="Path_119" data-name="Path 119" d="M106.465,89.949a3.7,3.7,0,1,0,3.611,4.475c-.816-.451-1.565-.874-1.565-.874l1.556-.73a3.7,3.7,0,0,0-3.6-2.872" transform="translate(548.563 -212.396)" fill-rule="evenodd"/>
      <path id="Path_120" data-name="Path 120" d="M108.27,70.13a9.186,9.186,0,0,1,2.377.134,4.168,4.168,0,0,0,2.355.307,5.706,5.706,0,0,0-1.671-2.039,7.934,7.934,0,0,0-2.966-1.05,3.375,3.375,0,0,0-2.684.621c-.758.543-1.225,1.36-.319,2.046.822.624,1.971.056,2.909-.019" transform="translate(547.256 -198.292)" fill-rule="evenodd"/>
      <path id="Path_121" data-name="Path 121" d="M53.748,77.608a2.034,2.034,0,0,1,.027-.2c-.072.067-.092.134-.027.2" transform="translate(579.299 -204.538)" fill="#002489" fill-rule="evenodd"/>
      <path id="Path_122" data-name="Path 122" d="M57.247,72.03c.827.133,2.6.9,2.764-.454.356-2.881-5.842-1.744-6.125,1.128a9.061,9.061,0,0,1,3.361-.674" transform="translate(579.188 -199.838)" fill-rule="evenodd"/>
      <path id="Path_123" data-name="Path 123" d="M67.518,125.951a13.892,13.892,0,0,0,5.954,1.772,10.426,10.426,0,0,0,7.726-1.916,8.35,8.35,0,0,0,.918-.814c1.921-1.967,2.426-4.445.958-5.357a1.585,1.585,0,0,0-2.007-.052c-.3.206-.619.476-1.021.711a10.641,10.641,0,0,1-6.114,1.21,13.048,13.048,0,0,1-5.053-1.159,6.213,6.213,0,0,1-1.216-.889,3.69,3.69,0,0,0-.86-.528c-.855-.356-2.673,1.113-1.463,4.3a5.585,5.585,0,0,0,2.18,2.725" transform="translate(572.266 -230.517)" fill-rule="evenodd"/>
      <path id="Path_124" data-name="Path 124" d="M73.89,123.345a6.7,6.7,0,0,0,2.283.631,14.753,14.753,0,0,0,7.331-.941,6.552,6.552,0,0,0,1.377-.717,1.892,1.892,0,0,0,.74-.889,1.236,1.236,0,0,0-.052-.872c-.3.206-.619.476-1.021.711a10.641,10.641,0,0,1-6.114,1.21,13.048,13.048,0,0,1-5.053-1.159,6.213,6.213,0,0,1-1.216-.889,1.952,1.952,0,0,0-.017.711,3.09,3.09,0,0,0,1.744,2.2" transform="translate(567.764 -231.489)" fill="#fff" fill-rule="evenodd"/>
    </g>
    <path id="Path_125" data-name="Path 125" d="M85.529,134.527a3.669,3.669,0,0,0-1.91-1.371,4.943,4.943,0,0,0-4.652.459s-.808-.912-3.889-.809a3.707,3.707,0,0,0-3.229,1.864,13.9,13.9,0,0,0,5.954,1.772,10.427,10.427,0,0,0,7.726-1.916" transform="translate(567.936 -239.236)" fill="#f54d5c" fill-rule="evenodd"/>
  </g>
</svg>
