<?xml version="1.0" encoding="UTF-8"?>
<svg id="Layer_2" data-name="Layer 2" xmlns="http://www.w3.org/2000/svg" viewBox="0 0 665.01 675.41">
  <g id="graphics">
    <g>
      <path id="Path_66" data-name="Path 66" d="M665.01,348.27c0,180.67-148.87,327.14-332.5,327.14S0,528.94,0,348.27,148.87,21.11,332.5,21.11s332.51,146.47,332.51,327.15" style="fill: #dededf; stroke-width: 0px;"/>
      <path id="Path_67" data-name="Path 67" d="M299.01,352.91c0-34.04-27.6-61.64-61.64-61.64-34.04,0-61.64,27.6-61.64,61.64,0,34.04,27.6,61.64,61.64,61.64s61.64-27.6,61.64-61.64h0" style="fill: #fff; fill-rule: evenodd; stroke-width: 0px;"/>
      <path id="Path_68" data-name="Path 68" d="M245.15,393.92c20.35.01,36.86-16.47,36.88-36.82.01-20.35-16.47-36.86-36.82-36.88-17.19-.01-32.11,11.87-35.95,28.62l15.5,7.27s-7.46,4.21-15.61,8.71c3.62,16.98,18.62,29.11,35.98,29.1" style="fill: #000; fill-rule: evenodd; stroke-width: 0px;"/>
      <path id="Path_69" data-name="Path 69" d="M484.16,352.91c0-34.04-27.6-61.64-61.64-61.64-34.04,0-61.64,27.6-61.64,61.64,0,34.04,27.6,61.64,61.64,61.64s61.64-27.6,61.64-61.64h0" style="fill: #fff; fill-rule: evenodd; stroke-width: 0px;"/>
      <path id="Path_70" data-name="Path 70" d="M419.4,320.22c-20.35-.02-36.87,16.46-36.89,36.81-.02,20.35,16.46,36.87,36.81,36.89,17.38.02,32.41-12.11,36.07-29.1-8.14-4.5-15.61-8.71-15.61-8.71l15.5-7.27c-3.83-16.74-18.72-28.61-35.89-28.61" style="fill: #000; fill-rule: evenodd; stroke-width: 0px;"/>
      <path id="Path_71" data-name="Path 71" d="M424.39,263.26c7.92-.59,15.88-.14,23.68,1.33,7.36,3.26,15.52,4.31,23.47,3.02-3.89-7.98-9.59-14.94-16.65-20.32-9.06-5.42-19.11-8.98-29.56-10.46-9.39-1.84-19.12.41-26.75,6.18-7.56,5.41-12.21,13.54-3.19,20.39,8.2,6.21,19.64.56,29-.19" style="fill: #000; fill-rule: evenodd; stroke-width: 0px;"/>
      <path id="Path_72" data-name="Path 72" d="M200.37,275.54c.06-.68.15-1.35.27-2.01-.71.66-.92,1.34-.27,2.01" style="fill: #002489; fill-rule: evenodd; stroke-width: 0px;"/>
      <path id="Path_73" data-name="Path 73" d="M234.11,266.8c8.24,1.33,25.88,9.06,27.55-4.52,3.54-28.71-58.21-17.38-61.04,11.25,10.63-4.35,22-6.63,33.49-6.73" style="fill: #000; fill-rule: evenodd; stroke-width: 0px;"/>
      <path id="Path_74" data-name="Path 74" d="M267.51,498.42c18.19,10.29,38.48,16.33,59.33,17.66,27.19,4.06,54.88-2.82,77-19.13,3.24-2.48,6.3-5.19,9.14-8.11,19.13-19.6,24.16-44.3,9.54-53.36-5.7-4.91-14.06-5.13-20.01-.51-3.02,2.01-6.17,4.74-10.18,7.05-18.65,10.02-39.87,14.23-60.93,12.08-17.38-.45-34.5-4.37-50.34-11.55-4.37-2.45-8.43-5.43-12.08-8.86-2.61-2.14-5.49-3.9-8.58-5.26-8.52-3.54-26.64,11.07-14.58,42.82,4.15,11.15,11.76,20.68,21.72,27.18" style="fill: #000; fill-rule: evenodd; stroke-width: 0px;"/>
      <path id="Path_75" data-name="Path 75" d="M286.15,462.74c7.15,3.43,14.86,5.56,22.75,6.28,24.75,3.13,49.89-.1,73.05-9.37,4.84-1.83,9.45-4.23,13.72-7.15,3.32-2.11,5.9-5.21,7.37-8.86.89-2.86.71-5.95-.51-8.69-3.02,2.01-6.17,4.74-10.18,7.05-18.65,10.02-39.87,14.23-60.93,12.08-17.38-.45-34.5-4.37-50.34-11.55-4.37-2.45-8.43-5.43-12.08-8.86-.49,2.32-.54,4.71-.17,7.05,1.94,9.68,8.4,17.84,17.38,21.95" style="fill: #fff; fill-rule: evenodd; stroke-width: 0px;"/>
      <rect id="Rectangle_690" data-name="Rectangle 690" width="665.01" height="654.28" style="fill: none; stroke-width: 0px;"/>
    </g>
  </g>
</svg>